<svg width="100%" height="100%" style="overflow:visible;" preserveAspectRatio="none" viewBox="0 0 60.82 32" fill="none" xmlns="http://www.w3.org/2000/svg">
<g clip-path="url(#clip0_9142_1364)">
<path d="M56.1992 32.6094H5.47618C2.69357 32.6094 0.427734 30.3435 0.427734 27.5609V5.65782C0.427734 2.87521 2.69357 0.609375 5.47618 0.609375H56.1992C58.9818 0.609375 61.2476 2.87521 61.2476 5.65782V27.5609C61.2476 30.3435 58.9818 32.6094 56.1992 32.6094Z" fill="url(#paint0_linear_9142_1364)"/>
<path d="M29.6049 5.39844H25.4707V28.4941H29.6049V5.39844Z" fill="white"/>
<path d="M37.2572 13.1914H33.123V28.4958H37.2572V13.1914Z" fill="white"/>
<path d="M55.722 28.4941L49.5406 20.4046L55.245 13.1897H50.3555L44.9096 20.186V5.39844H40.7754V28.4941H44.9096V20.6432L50.3555 28.4941H55.722Z" fill="white"/>
<path d="M14.9577 13.0307C13.626 13.0307 12.3539 13.3686 11.2608 13.9649V5.39844H7.14648V20.8618C7.14648 25.1748 10.6446 28.6928 14.9775 28.6928C19.3105 28.6928 22.8086 25.1947 22.8086 20.8618C22.8086 16.5289 19.2906 13.0307 14.9577 13.0307ZM14.9577 24.5587C12.9105 24.5587 11.2608 22.909 11.2608 20.8618C11.2608 18.8146 12.9105 17.1649 14.9577 17.1649C17.0049 17.1649 18.6546 18.8146 18.6546 20.8618C18.6546 22.909 17.0049 24.5587 14.9577 24.5587Z" fill="white"/>
<path d="M18.9915 11.6001C21.0222 11.6001 22.6685 9.95387 22.6685 7.92311C22.6685 5.89235 21.0222 4.24609 18.9915 4.24609C16.9607 4.24609 15.3145 5.89235 15.3145 7.92311C15.3145 9.95387 16.9607 11.6001 18.9915 11.6001Z" fill="url(#paint1_radial_9142_1364)"/>
</g>
<defs>
<linearGradient id="paint0_linear_9142_1364" x1="30.8377" y1="32.6094" x2="30.8377" y2="0.609375" gradientUnits="userSpaceOnUse">
<stop stop-color="#262626"/>
<stop offset="1"/>
</linearGradient>
<radialGradient id="paint1_radial_9142_1364" cx="0" cy="0" r="1" gradientUnits="userSpaceOnUse" gradientTransform="translate(15.9968 4.05395) scale(12.0552)">
<stop stop-color="#FF0000"/>
<stop offset="0.495" stop-color="#E83E49"/>
<stop offset="1" stop-color="#FF00FF"/>
</radialGradient>
<clipPath id="clip0_9142_1364">
<rect width="60.8199" height="32" fill="white" transform="translate(0.427734 0.609375)"/>
</clipPath>
</defs>
</svg>
