<svg width="100%" height="100%" style="overflow:visible;" preserveAspectRatio="none" viewBox="0 0 60.82 32" fill="none" xmlns="http://www.w3.org/2000/svg">
<g clip-path="url(#clip0_9228_1122)">
<path d="M56.1992 32.0273H5.47618C2.69357 32.0273 0.427734 29.7615 0.427734 26.9789V5.07579C0.427734 2.29318 2.69357 0.0273438 5.47618 0.0273438H56.1992C58.9818 0.0273438 61.2476 2.29318 61.2476 5.07579V26.9789C61.2476 29.7615 58.9818 32.0273 56.1992 32.0273Z" fill="url(#paint0_linear_9228_1122)"/>
<path d="M29.6049 4.81641H25.4707V27.9121H29.6049V4.81641Z" fill="white"/>
<path d="M37.2572 12.6094H33.123V27.9137H37.2572V12.6094Z" fill="white"/>
<path d="M55.722 27.9121L49.5406 19.8226L55.245 12.6077H50.3555L44.9096 19.604V4.81641H40.7754V27.9121H44.9096V20.0611L50.3555 27.9121H55.722Z" fill="white"/>
<path d="M14.9577 12.4487C13.626 12.4487 12.3539 12.7866 11.2608 13.3829V4.81641H7.14648V20.2798C7.14648 24.5928 10.6446 28.1108 14.9775 28.1108C19.3105 28.1108 22.8086 24.6127 22.8086 20.2798C22.8086 15.9468 19.2906 12.4487 14.9577 12.4487ZM14.9577 23.9767C12.9105 23.9767 11.2608 22.327 11.2608 20.2798C11.2608 18.2326 12.9105 16.5829 14.9577 16.5829C17.0049 16.5829 18.6546 18.2326 18.6546 20.2798C18.6546 22.327 17.0049 23.9767 14.9577 23.9767Z" fill="white"/>
<path d="M18.9915 11.0181C21.0222 11.0181 22.6685 9.37184 22.6685 7.34108C22.6685 5.31032 21.0222 3.66406 18.9915 3.66406C16.9607 3.66406 15.3145 5.31032 15.3145 7.34108C15.3145 9.37184 16.9607 11.0181 18.9915 11.0181Z" fill="url(#paint1_radial_9228_1122)"/>
</g>
<defs>
<linearGradient id="paint0_linear_9228_1122" x1="30.8377" y1="32.0273" x2="30.8377" y2="0.0273438" gradientUnits="userSpaceOnUse">
<stop stop-color="#262626"/>
<stop offset="1"/>
</linearGradient>
<radialGradient id="paint1_radial_9228_1122" cx="0" cy="0" r="1" gradientUnits="userSpaceOnUse" gradientTransform="translate(15.9968 3.47192) scale(12.0552)">
<stop stop-color="#FF0000"/>
<stop offset="0.495" stop-color="#E83E49"/>
<stop offset="1" stop-color="#FF00FF"/>
</radialGradient>
<clipPath id="clip0_9228_1122">
<rect width="60.8199" height="32" fill="white" transform="translate(0.427734 0.0273438)"/>
</clipPath>
</defs>
</svg>
