<svg width="100%" height="100%" style="overflow:visible;" preserveAspectRatio="none" viewBox="0 0 242.2 333" fill="none" xmlns="http://www.w3.org/2000/svg">
<path d="M208.398 40.418L205.223 37.568C204.023 36.4846 202.994 35.518 202.136 34.668C201.278 33.818 200.569 33.018 200.011 32.268C199.453 31.518 199.044 30.793 198.786 30.093C198.528 29.393 198.398 28.6596 198.398 27.893C198.398 26.3263 198.923 25.0221 199.973 23.9805C201.023 22.9388 202.332 22.418 203.898 22.418C204.765 22.418 205.59 22.6013 206.373 22.968C207.157 23.3346 207.832 23.8513 208.398 24.518C208.965 23.8513 209.64 23.3346 210.423 22.968C211.207 22.6013 212.032 22.418 212.898 22.418C214.248 22.418 215.382 22.7971 216.298 23.5555C217.215 24.3138 217.84 25.268 218.173 26.418H216.048C215.748 25.7513 215.307 25.2513 214.723 24.918C214.14 24.5846 213.532 24.418 212.898 24.418C212.048 24.418 211.315 24.6471 210.698 25.1055C210.082 25.5638 209.507 26.168 208.973 26.918H207.823C207.307 26.168 206.719 25.5638 206.061 25.1055C205.403 24.6471 204.682 24.418 203.898 24.418C202.948 24.418 202.128 24.7471 201.436 25.4055C200.744 26.0638 200.398 26.893 200.398 27.893C200.398 28.443 200.515 29.0013 200.748 29.568C200.982 30.1346 201.398 30.7888 201.998 31.5305C202.598 32.2721 203.415 33.1388 204.448 34.1305C205.482 35.1221 206.798 36.318 208.398 37.718C208.832 37.3346 209.34 36.893 209.923 36.393C210.507 35.893 210.973 35.4763 211.323 35.143L211.548 35.368L212.036 35.8555L212.523 36.343L212.748 36.568C212.382 36.9013 211.915 37.3138 211.348 37.8055C210.782 38.2971 210.282 38.7346 209.848 39.118L208.398 40.418ZM215.398 36.418V33.418H212.398V31.418H215.398V28.418H217.398V31.418H220.398V33.418H217.398V36.418H215.398Z" fill="#F4F3F3"/>
</svg>
