<svg width="100%" height="100%" style="overflow:visible;" preserveAspectRatio="none" viewBox="0 0 220 300" fill="none" xmlns="http://www.w3.org/2000/svg">
<path d="M186 40.0273L182.825 37.1773C181.625 36.094 180.596 35.1273 179.738 34.2773C178.879 33.4273 178.171 32.6273 177.613 31.8773C177.054 31.1273 176.646 30.4023 176.388 29.7023C176.129 29.0023 176 28.269 176 27.5023C176 25.9357 176.525 24.6315 177.575 23.5898C178.625 22.5482 179.933 22.0273 181.5 22.0273C182.367 22.0273 183.192 22.2107 183.975 22.5773C184.758 22.944 185.433 23.4607 186 24.1273C186.567 23.4607 187.242 22.944 188.025 22.5773C188.808 22.2107 189.633 22.0273 190.5 22.0273C191.85 22.0273 192.983 22.4065 193.9 23.1648C194.817 23.9232 195.442 24.8773 195.775 26.0273H193.65C193.35 25.3607 192.908 24.8607 192.325 24.5273C191.742 24.194 191.133 24.0273 190.5 24.0273C189.65 24.0273 188.917 24.2565 188.3 24.7148C187.683 25.1732 187.108 25.7773 186.575 26.5273H185.425C184.908 25.7773 184.321 25.1732 183.663 24.7148C183.004 24.2565 182.283 24.0273 181.5 24.0273C180.55 24.0273 179.729 24.3565 179.038 25.0148C178.346 25.6732 178 26.5023 178 27.5023C178 28.0523 178.117 28.6107 178.35 29.1773C178.583 29.744 179 30.3982 179.6 31.1398C180.2 31.8815 181.017 32.7482 182.05 33.7398C183.083 34.7315 184.4 35.9273 186 37.3273C186.433 36.944 186.942 36.5023 187.525 36.0023C188.108 35.5023 188.575 35.0857 188.925 34.7523L189.15 34.9773L189.638 35.4648L190.125 35.9523L190.35 36.1773C189.983 36.5107 189.517 36.9232 188.95 37.4148C188.383 37.9065 187.883 38.344 187.45 38.7273L186 40.0273ZM193 36.0273V33.0273H190V31.0273H193V28.0273H195V31.0273H198V33.0273H195V36.0273H193Z" fill="#F4F3F3"/>
</svg>
