<svg width="100%" height="100%" style="overflow:visible;" preserveAspectRatio="none"
    viewBox="0 0 270 342" fill="none" xmlns="http://www.w3.org/2000/svg"
    xmlns:xlink="http://www.w3.org/1999/xlink">
    <rect width="270" height="342" transform="translate(0 0.0273438)" fill="url(#pattern0_9228_576)" />
    <path
        d="M236 40.0273L232.825 37.1773C231.625 36.094 230.596 35.1273 229.738 34.2773C228.879 33.4273 228.171 32.6273 227.613 31.8773C227.054 31.1273 226.646 30.4023 226.388 29.7023C226.129 29.0023 226 28.269 226 27.5023C226 25.9357 226.525 24.6315 227.575 23.5898C228.625 22.5482 229.933 22.0273 231.5 22.0273C232.367 22.0273 233.192 22.2107 233.975 22.5773C234.758 22.944 235.433 23.4607 236 24.1273C236.567 23.4607 237.242 22.944 238.025 22.5773C238.808 22.2107 239.633 22.0273 240.5 22.0273C241.85 22.0273 242.983 22.4065 243.9 23.1648C244.817 23.9232 245.442 24.8773 245.775 26.0273H243.65C243.35 25.3607 242.908 24.8607 242.325 24.5273C241.742 24.194 241.133 24.0273 240.5 24.0273C239.65 24.0273 238.917 24.2565 238.3 24.7148C237.683 25.1732 237.108 25.7773 236.575 26.5273H235.425C234.908 25.7773 234.321 25.1732 233.663 24.7148C233.004 24.2565 232.283 24.0273 231.5 24.0273C230.55 24.0273 229.729 24.3565 229.038 25.0148C228.346 25.6732 228 26.5023 228 27.5023C228 28.0523 228.117 28.6107 228.35 29.1773C228.583 29.744 229 30.3982 229.6 31.1398C230.2 31.8815 231.017 32.7482 232.05 33.7398C233.083 34.7315 234.4 35.9273 236 37.3273C236.433 36.944 236.942 36.5023 237.525 36.0023C238.108 35.5023 238.575 35.0857 238.925 34.7523L239.15 34.9773L239.638 35.4648L240.125 35.9523L240.35 36.1773C239.983 36.5107 239.517 36.9232 238.95 37.4148C238.383 37.9065 237.883 38.344 237.45 38.7273L236 40.0273ZM243 36.0273V33.0273H240V31.0273H243V28.0273H245V31.0273H248V33.0273H245V36.0273H243Z"
        fill="#231F20" />
    <defs>
        <pattern id="pattern0_9228_576" patternContentUnits="objectBoundingBox" width="1" height="1">
            <use xlink:href="#image0_9228_576"
                transform="matrix(0.000348068 0 0 0.000274791 0 -0.0627714)" />
        </pattern>
        <image id="image0_9228_576" width="2873" height="4096" xlink:href="/assets/block6.png" />
    </defs>
</svg>