<svg width="100%" height="100%" style="overflow:visible;" preserveAspectRatio="none" viewBox="0 0 11 16.09" fill="none" xmlns="http://www.w3.org/2000/svg">
<path d="M4.7025 13.2837L5.5 13.9987L6.2975 13.2837C7.22333 12.4496 7.98875 11.73 8.59375 11.125C9.19875 10.52 9.68 9.97687 10.0375 9.49562C10.395 9.01437 10.6448 8.57208 10.7869 8.16875C10.929 7.76542 11 7.35292 11 6.93125C11 6.06958 10.7113 5.35 10.1338 4.7725C9.55625 4.195 8.83667 3.90625 7.975 3.90625C7.49833 3.90625 7.04458 4.00708 6.61375 4.20875C6.18292 4.41042 5.81167 4.69458 5.5 5.06125C5.18833 4.69458 4.81708 4.41042 4.38625 4.20875C3.95542 4.00708 3.50167 3.90625 3.025 3.90625C2.16333 3.90625 1.44375 4.195 0.86625 4.7725C0.28875 5.35 0 6.06958 0 6.93125C0 7.35292 0.0710417 7.76542 0.213125 8.16875C0.355208 8.57208 0.605 9.01437 0.9625 9.49562C1.32 9.97687 1.80125 10.52 2.40625 11.125C3.01125 11.73 3.77667 12.4496 4.7025 13.2837Z" fill="#F49974"/>
</svg>
