<svg width="100%" height="100%" style="overflow:visible;" preserveAspectRatio="none" viewBox="0 0 140 300" fill="none" xmlns="http://www.w3.org/2000/svg">
<path d="M106 40.0273L102.825 37.1773C101.625 36.094 100.596 35.1273 99.7375 34.2773C98.8792 33.4273 98.1708 32.6273 97.6125 31.8773C97.0542 31.1273 96.6458 30.4023 96.3875 29.7023C96.1292 29.0023 96 28.269 96 27.5023C96 25.9357 96.525 24.6315 97.575 23.5898C98.625 22.5482 99.9333 22.0273 101.5 22.0273C102.367 22.0273 103.192 22.2107 103.975 22.5773C104.758 22.944 105.433 23.4607 106 24.1273C106.567 23.4607 107.242 22.944 108.025 22.5773C108.808 22.2107 109.633 22.0273 110.5 22.0273C111.85 22.0273 112.983 22.4065 113.9 23.1648C114.817 23.9232 115.442 24.8773 115.775 26.0273H113.65C113.35 25.3607 112.908 24.8607 112.325 24.5273C111.742 24.194 111.133 24.0273 110.5 24.0273C109.65 24.0273 108.917 24.2565 108.3 24.7148C107.683 25.1732 107.108 25.7773 106.575 26.5273H105.425C104.908 25.7773 104.321 25.1732 103.663 24.7148C103.004 24.2565 102.283 24.0273 101.5 24.0273C100.55 24.0273 99.7292 24.3565 99.0375 25.0148C98.3458 25.6732 98 26.5023 98 27.5023C98 28.0523 98.1167 28.6107 98.35 29.1773C98.5833 29.744 99 30.3982 99.6 31.1398C100.2 31.8815 101.017 32.7482 102.05 33.7398C103.083 34.7315 104.4 35.9273 106 37.3273C106.433 36.944 106.942 36.5023 107.525 36.0023C108.108 35.5023 108.575 35.0857 108.925 34.7523L109.15 34.9773L109.638 35.4648L110.125 35.9523L110.35 36.1773C109.983 36.5107 109.517 36.9232 108.95 37.4148C108.383 37.9065 107.883 38.344 107.45 38.7273L106 40.0273ZM113 36.0273V33.0273H110V31.0273H113V28.0273H115V31.0273H118V33.0273H115V36.0273H113Z" fill="#F4F3F3"/>
</svg>
