<svg width="100%" height="100%" style="overflow:visible;" preserveAspectRatio="none" viewBox="0 0 11 24" fill="none" xmlns="http://www.w3.org/2000/svg">
<path d="M5.62665 17.8323C8.21274 17.8323 10.3827 15.9836 10.9991 13.48H8.76507C8.23011 14.7609 7.0084 15.6573 5.58642 15.6573C5.01579 15.6573 4.47901 15.5129 4.00441 15.2575L8.10574 9.53656C8.37917 9.83887 8.60412 10.1909 8.76598 10.5774H11C10.7293 9.47725 10.1578 8.5024 9.38233 7.7562L10.4806 6.22266H8.32247L7.94297 6.75265C7.23793 6.41303 6.45241 6.22266 5.62574 6.22266C2.56139 6.22266 0.076814 8.82193 0.076814 12.0277C0.076814 13.4828 0.59074 14.8107 1.43661 15.8295L0 17.8328L5.62665 17.8323ZM2.11788 12.0287C2.11788 10.0245 3.67063 8.40004 5.58642 8.40004C5.95403 8.40004 6.30701 8.46031 6.63896 8.57128L2.70862 14.054C2.33552 13.4752 2.11788 12.7787 2.11788 12.0287Z" fill="#F4F3F3"/>
</svg>
