<svg width="100%" height="100%" style="overflow:visible;" preserveAspectRatio="none" viewBox="0 0 242.2 311" fill="none" xmlns="http://www.w3.org/2000/svg">
<rect x="180.199" y="22.418" width="40" height="40" rx="20" fill="#F49974"/>
<path d="M199.199 51.418L196.024 48.568C194.824 47.4846 193.795 46.518 192.937 45.668C192.078 44.818 191.37 44.018 190.812 43.268C190.253 42.518 189.845 41.793 189.587 41.093C189.328 40.393 189.199 39.6596 189.199 38.893C189.199 37.3263 189.724 36.0221 190.774 34.9805C191.824 33.9388 193.133 33.418 194.699 33.418C195.566 33.418 196.391 33.6013 197.174 33.968C197.958 34.3346 198.633 34.8513 199.199 35.518C199.766 34.8513 200.441 34.3346 201.224 33.968C202.008 33.6013 202.833 33.418 203.699 33.418C205.049 33.418 206.183 33.7971 207.099 34.5555C208.016 35.3138 208.641 36.268 208.974 37.418H206.849C206.549 36.7513 206.108 36.2513 205.524 35.918C204.941 35.5846 204.333 35.418 203.699 35.418C202.849 35.418 202.116 35.6471 201.499 36.1055C200.883 36.5638 200.308 37.168 199.774 37.918H198.624C198.108 37.168 197.52 36.5638 196.862 36.1055C196.203 35.6471 195.483 35.418 194.699 35.418C193.749 35.418 192.928 35.7471 192.237 36.4055C191.545 37.0638 191.199 37.893 191.199 38.893C191.199 39.443 191.316 40.0013 191.549 40.568C191.783 41.1346 192.199 41.7888 192.799 42.5305C193.399 43.2721 194.216 44.1388 195.249 45.1305C196.283 46.1221 197.599 47.318 199.199 48.718C199.633 48.3346 200.141 47.893 200.724 47.393C201.308 46.893 201.774 46.4763 202.124 46.143L202.349 46.368L202.837 46.8555L203.324 47.343L203.549 47.568C203.183 47.9013 202.716 48.3138 202.149 48.8055C201.583 49.2971 201.083 49.7346 200.649 50.118L199.199 51.418ZM206.199 47.418V44.418H203.199V42.418H206.199V39.418H208.199V42.418H211.199V44.418H208.199V47.418H206.199Z" fill="#F4F3F3"/>
</svg>
