<svg width="100%" height="100%" style="overflow:visible;" preserveAspectRatio="none" viewBox="0 0 300 176" fill="none" xmlns="http://www.w3.org/2000/svg">
<path d="M266 40.0273L262.825 37.1773C261.625 36.094 260.596 35.1273 259.738 34.2773C258.879 33.4273 258.171 32.6273 257.613 31.8773C257.054 31.1273 256.646 30.4023 256.388 29.7023C256.129 29.0023 256 28.269 256 27.5023C256 25.9357 256.525 24.6315 257.575 23.5898C258.625 22.5482 259.933 22.0273 261.5 22.0273C262.367 22.0273 263.192 22.2107 263.975 22.5773C264.758 22.944 265.433 23.4607 266 24.1273C266.567 23.4607 267.242 22.944 268.025 22.5773C268.808 22.2107 269.633 22.0273 270.5 22.0273C271.85 22.0273 272.983 22.4065 273.9 23.1648C274.817 23.9232 275.442 24.8773 275.775 26.0273H273.65C273.35 25.3607 272.908 24.8607 272.325 24.5273C271.742 24.194 271.133 24.0273 270.5 24.0273C269.65 24.0273 268.917 24.2565 268.3 24.7148C267.683 25.1732 267.108 25.7773 266.575 26.5273H265.425C264.908 25.7773 264.321 25.1732 263.663 24.7148C263.004 24.2565 262.283 24.0273 261.5 24.0273C260.55 24.0273 259.729 24.3565 259.038 25.0148C258.346 25.6732 258 26.5023 258 27.5023C258 28.0523 258.117 28.6107 258.35 29.1773C258.583 29.744 259 30.3982 259.6 31.1398C260.2 31.8815 261.017 32.7482 262.05 33.7398C263.083 34.7315 264.4 35.9273 266 37.3273C266.433 36.944 266.942 36.5023 267.525 36.0023C268.108 35.5023 268.575 35.0857 268.925 34.7523L269.15 34.9773L269.638 35.4648L270.125 35.9523L270.35 36.1773C269.983 36.5107 269.517 36.9232 268.95 37.4148C268.383 37.9065 267.883 38.344 267.45 38.7273L266 40.0273ZM273 36.0273V33.0273H270V31.0273H273V28.0273H275V31.0273H278V33.0273H275V36.0273H273Z" fill="#F4F3F3"/>
</svg>
