<svg width="100%" height="100%" style="overflow:visible;" preserveAspectRatio="none" viewBox="0 0 99 126.85" fill="none" xmlns="http://www.w3.org/2000/svg">
<path d="M61.9199 9.2C61.9199 10.64 62.4599 11.9 64.0799 11.9C65.6099 11.9 66.2399 10.55 66.2399 9.2C66.2399 7.76 65.7899 6.5 64.0799 6.5C62.4599 6.5 61.9199 7.76 61.9199 9.2ZM65.2499 9.2C65.2499 10.01 65.0699 11.18 64.0799 11.18C63.0899 11.18 62.9099 10.01 62.9099 9.2C62.9099 8.39 63.0899 7.22 64.0799 7.22C65.1599 7.22 65.2499 8.39 65.2499 9.2Z" fill="#F4F3F3"/>
<path d="M63.4502 57.7994V42.8594H56.1602V59.1494C56.1602 65.7194 58.1402 70.0394 65.8802 70.0394C68.9402 70.0394 72.1802 68.6894 73.9802 65.6294H74.1602V69.3194H81.0902V42.8594H73.8002V56.7194C73.8002 62.1194 72.0902 64.2794 68.1302 64.2794C64.7102 64.2794 63.4502 62.1194 63.4502 57.7994Z" fill="#F4F3F3"/>
<path d="M70.3789 102.618H78.4789V100.818H73.1689L78.2989 94.6983V92.9883H70.7389V94.7883H75.5089L70.3789 100.998V102.618Z" fill="#F4F3F3"/>
<path d="M74.9691 90.1992L73.6191 92.0892H74.9691L77.0391 90.1992H74.9691Z" fill="#F4F3F3"/>
<path d="M57.3301 92.9883V102.618H61.4701C64.4401 102.618 65.8801 100.548 65.8801 97.7583C65.8801 94.6083 63.9901 92.9883 61.4701 92.9883H57.3301ZM63.7201 97.9383C63.7201 100.098 62.5501 100.818 61.2901 100.818H59.4001V94.7883H60.9301C63.0001 94.7883 63.7201 96.0483 63.7201 97.9383Z" fill="#F4F3F3"/>
<path d="M57.6894 12.08L64.9794 2H63.8094L56.6094 12.08H57.6894Z" fill="#F4F3F3"/>
<path d="M31.7699 102.618V92.9883H28.7999L26.6399 99.6483L24.3899 92.9883H21.4199V102.618H23.3999V95.8683L25.7399 102.618H27.4499L29.7899 95.7783V102.618H31.7699Z" fill="#F4F3F3"/>
<path d="M57.4198 7.57969C58.9498 7.57969 59.5798 6.22969 59.5798 4.87969C59.5798 3.43969 59.1298 2.17969 57.4198 2.17969C55.7998 2.17969 55.2598 3.43969 55.2598 4.87969C55.2598 6.40969 55.7998 7.57969 57.4198 7.57969ZM57.4198 2.89969C58.4098 2.89969 58.5898 4.06969 58.5898 4.87969C58.5898 5.68969 58.4098 6.85969 57.4198 6.85969C56.4298 6.85969 56.2498 5.68969 56.2498 4.87969C56.2498 4.06969 56.4298 2.89969 57.4198 2.89969Z" fill="#F4F3F3"/>
<path d="M39.4198 92.9883H37.2598V102.618H39.4198V92.9883Z" fill="#F4F3F3"/>
<path d="M78.3 4.25V6.05H97.2V123.05H1.8V6.05H20.7V4.25H0V124.85H99V4.25H78.3Z" fill="#F4F3F3"/>
<path d="M35.3711 70.2189C44.3711 70.2189 50.6711 64.4589 51.4811 55.2789H43.6511C43.0211 60.1389 40.2311 63.4689 35.3711 63.4689C28.1711 63.4689 25.3811 57.3489 25.3811 51.2289C25.3811 44.8389 28.0811 38.6289 35.3711 38.6289C39.3311 38.6289 42.8411 41.4189 43.3811 45.0189H51.2111C50.2211 36.5589 43.3811 31.8789 35.3711 31.8789C24.1211 31.8789 17.3711 40.3389 17.3711 51.2289C17.3711 61.7589 24.1211 70.2189 35.3711 70.2189Z" fill="#F4F3F3"/>
<path d="M52.1102 94.7883V92.9883H44.9102V102.618H52.2002V100.818H47.0702V98.4783H51.7502V96.8583H47.0702V94.7883H52.1102Z" fill="#F4F3F3"/>
<path d="M46.3509 8.47984C47.2509 8.47984 48.1509 7.93984 48.6009 7.12984C48.5109 9.64984 47.8809 10.8198 46.4409 10.8198C45.5409 10.8198 44.8209 10.2798 44.7309 9.37984H43.5609C43.7409 10.9998 44.8209 11.8098 46.4409 11.8098C48.7809 11.8098 49.7709 9.91984 49.7709 6.67984C49.7709 3.07984 48.2409 2.08984 46.5309 2.08984C44.6409 2.08984 43.3809 3.34984 43.3809 5.23984C43.3809 7.21984 44.3709 8.47984 46.3509 8.47984ZM46.4409 3.16984C47.7009 3.16984 48.4209 4.15984 48.4209 5.32984C48.4209 6.49984 47.7009 7.39984 46.4409 7.39984C45.3609 7.39984 44.5509 6.40984 44.5509 5.41984C44.5509 4.24984 45.0909 3.16984 46.4409 3.16984Z" fill="#F4F3F3"/>
<path d="M35.1907 8.47984C36.0907 8.47984 36.9907 7.93984 37.4407 7.12984C37.3507 9.64984 36.7207 10.8198 35.2807 10.8198C34.3807 10.8198 33.6607 10.2798 33.5707 9.37984H32.4007C32.5807 10.9998 33.6607 11.8098 35.2807 11.8098C37.6207 11.8098 38.6107 9.91984 38.6107 6.67984C38.6107 3.07984 37.0807 2.08984 35.3707 2.08984C33.4807 2.08984 32.2207 3.34984 32.2207 5.23984C32.2207 7.21984 33.2107 8.47984 35.1907 8.47984ZM35.2807 3.16984C36.5407 3.16984 37.2607 4.15984 37.2607 5.32984C37.2607 6.49984 36.5407 7.39984 35.2807 7.39984C34.2007 7.39984 33.3907 6.40984 33.3907 5.41984C33.3907 4.24984 33.9307 3.16984 35.2807 3.16984Z" fill="#F4F3F3"/>
</svg>
