<svg width="100%" height="100%" style="overflow:visible;" preserveAspectRatio="none" viewBox="0 0 64 83.42" fill="none" xmlns="http://www.w3.org/2000/svg">
<g clip-path="url(#clip0_9228_431)">
<path d="M40.0293 6.65561C40.0293 7.58652 40.3784 8.40107 41.4257 8.40107C42.4148 8.40107 42.822 7.52834 42.822 6.65561C42.822 5.7247 42.5311 4.91016 41.4257 4.91016C40.3784 4.91016 40.0293 5.7247 40.0293 6.65561ZM42.182 6.65561C42.182 7.17925 42.0657 7.93561 41.4257 7.93561C40.7857 7.93561 40.6693 7.17925 40.6693 6.65561C40.6693 6.13197 40.7857 5.37561 41.4257 5.37561C42.1238 5.37561 42.182 6.13197 42.182 6.65561Z" fill="#F4F3F3"/>
<path d="M41.0174 38.0722V28.4141H36.3047V38.945C36.3047 43.1922 37.5847 45.985 42.5883 45.985C44.5665 45.985 46.6611 45.1122 47.8247 43.1341H47.9411V45.5195H52.4211V28.4141H47.7083V37.3741C47.7083 40.865 46.6029 42.2613 44.0429 42.2613C41.832 42.2613 41.0174 40.865 41.0174 38.0722Z" fill="#F4F3F3"/>
<path d="M45.498 67.0458H50.7344V65.8821H47.3017L50.618 61.9258V60.8203H45.7308V61.9839H48.8144L45.498 65.9985V67.0458Z" fill="#F4F3F3"/>
<path d="M48.4645 59.0195L47.5918 60.2413H48.4645L49.8027 59.0195H48.4645Z" fill="#F4F3F3"/>
<path d="M37.0605 60.8203V67.0458H39.7369C41.6569 67.0458 42.5878 65.7076 42.5878 63.904C42.5878 61.8676 41.366 60.8203 39.7369 60.8203H37.0605ZM41.1915 64.0203C41.1915 65.4167 40.4351 65.8821 39.6205 65.8821H38.3987V61.9839H39.3878C40.726 61.9839 41.1915 62.7985 41.1915 64.0203Z" fill="#F4F3F3"/>
<path d="M37.2939 8.51636L42.0066 2H41.2502L36.5957 8.51636H37.2939Z" fill="#F4F3F3"/>
<path d="M20.5386 67.0458V60.8203H18.6186L17.2222 65.1258L15.7677 60.8203H13.8477V67.0458H15.1277V62.6821L16.6404 67.0458H17.7458L19.2586 62.624V67.0458H20.5386Z" fill="#F4F3F3"/>
<path d="M37.121 5.6081C38.1101 5.6081 38.5173 4.73537 38.5173 3.86264C38.5173 2.93173 38.2264 2.11719 37.121 2.11719C36.0737 2.11719 35.7246 2.93173 35.7246 3.86264C35.7246 4.85173 36.0737 5.6081 37.121 5.6081ZM37.121 2.58264C37.761 2.58264 37.8773 3.33901 37.8773 3.86264C37.8773 4.38628 37.761 5.14264 37.121 5.14264C36.481 5.14264 36.3646 4.38628 36.3646 3.86264C36.3646 3.33901 36.481 2.58264 37.121 2.58264Z" fill="#F4F3F3"/>
<path d="M25.4823 60.8203H24.0859V67.0458H25.4823V60.8203Z" fill="#F4F3F3"/>
<path d="M50.6182 3.45312V4.61676H62.8364V80.2531H1.16364V4.61676H13.3818V3.45312H0V81.4168H64V3.45312H50.6182Z" fill="#F4F3F3" stroke="#F4F3F3"/>
<path d="M22.8649 46.1019C28.6831 46.1019 32.7558 42.3782 33.2794 36.4437H28.2176C27.8103 39.5855 26.0067 41.7382 22.8649 41.7382C18.2103 41.7382 16.4067 37.7819 16.4067 33.8255C16.4067 29.6946 18.1522 25.68 22.8649 25.68C25.4249 25.68 27.694 27.4837 28.0431 29.811H33.1049C32.4649 24.3419 28.0431 21.3164 22.8649 21.3164C15.5922 21.3164 11.2285 26.7855 11.2285 33.8255C11.2285 40.6328 15.5922 46.1019 22.8649 46.1019Z" fill="#F4F3F3"/>
<path d="M33.6877 61.9839V60.8203H29.0332V67.0458H33.7459V65.8821H30.4296V64.3694H33.455V63.3221H30.4296V61.9839H33.6877Z" fill="#F4F3F3"/>
<path d="M29.963 6.1895C30.5448 6.1895 31.1266 5.84041 31.4175 5.31678C31.3593 6.94587 30.9521 7.70223 30.0211 7.70223C29.4393 7.70223 28.9739 7.35314 28.9157 6.77132H28.1593C28.2757 7.81859 28.9739 8.34223 30.0211 8.34223C31.5339 8.34223 32.1739 7.12041 32.1739 5.02587C32.1739 2.69859 31.1848 2.05859 30.0793 2.05859C28.8575 2.05859 28.043 2.87314 28.043 4.09496C28.043 5.37496 28.683 6.1895 29.963 6.1895ZM30.0211 2.75678C30.8357 2.75678 31.3011 3.39678 31.3011 4.15314C31.3011 4.9095 30.8357 5.49132 30.0211 5.49132C29.323 5.49132 28.7993 4.85132 28.7993 4.21132C28.7993 3.45496 29.1484 2.75678 30.0211 2.75678Z" fill="#F4F3F3"/>
<path d="M22.7501 6.1895C23.3319 6.1895 23.9137 5.84041 24.2046 5.31678C24.1464 6.94587 23.7392 7.70223 22.8083 7.70223C22.2264 7.70223 21.761 7.35314 21.7028 6.77132H20.9464C21.0628 7.81859 21.761 8.34223 22.8083 8.34223C24.321 8.34223 24.961 7.12041 24.961 5.02587C24.961 2.69859 23.9719 2.05859 22.8664 2.05859C21.6446 2.05859 20.8301 2.87314 20.8301 4.09496C20.8301 5.37496 21.4701 6.1895 22.7501 6.1895ZM22.8083 2.75678C23.6228 2.75678 24.0883 3.39678 24.0883 4.15314C24.0883 4.9095 23.6228 5.49132 22.8083 5.49132C22.1101 5.49132 21.5864 4.85132 21.5864 4.21132C21.5864 3.45496 21.9355 2.75678 22.8083 2.75678Z" fill="#F4F3F3"/>
</g>
<defs>
<clipPath id="clip0_9228_431">
<rect width="64" height="83.4182" fill="white"/>
</clipPath>
</defs>
</svg>
