<svg width="100%" height="100%" style="overflow:visible;" preserveAspectRatio="none" viewBox="0 0 98 125.61" fill="none" xmlns="http://www.w3.org/2000/svg">
<path d="M61.2949 9.12585C61.2949 10.5513 61.8295 11.7986 63.4331 11.7986C64.9477 11.7986 65.5713 10.4622 65.5713 9.12585C65.5713 7.7004 65.1258 6.45312 63.4331 6.45312C61.8295 6.45312 61.2949 7.7004 61.2949 9.12585ZM64.5913 9.12585C64.5913 9.92767 64.4131 11.0859 63.4331 11.0859C62.4531 11.0859 62.2749 9.92767 62.2749 9.12585C62.2749 8.32403 62.4531 7.16585 63.4331 7.16585C64.5022 7.16585 64.5913 8.32403 64.5913 9.12585Z" fill="#F49974"/>
<path d="M62.8101 57.2383V42.4492H55.5938V58.5747C55.5938 65.0783 57.5538 69.3547 65.2156 69.3547C68.2447 69.3547 71.4519 68.0183 73.2338 64.9892H73.4119V68.6419H80.2719V42.4492H73.0556V56.1692C73.0556 61.5147 71.3628 63.6529 67.4428 63.6529C64.0574 63.6529 62.8101 61.5147 62.8101 57.2383Z" fill="#F49974"/>
<path d="M69.668 101.603H77.6862V99.8212H72.4298L77.508 93.763V92.0703H70.0243V93.8521H74.7461L69.668 99.9994V101.603Z" fill="#F49974"/>
<path d="M74.2133 89.3086L72.877 91.1795H74.2133L76.2624 89.3086H74.2133Z" fill="#F49974"/>
<path d="M56.75 92.0703V101.603H60.8482C63.7882 101.603 65.2136 99.554 65.2136 96.7921C65.2136 93.674 63.3427 92.0703 60.8482 92.0703H56.75ZM63.0755 96.9703C63.0755 99.1085 61.9173 99.8212 60.67 99.8212H58.7991V93.8521H60.3136C62.3627 93.8521 63.0755 95.0994 63.0755 96.9703Z" fill="#F49974"/>
<path d="M57.1082 11.9782L64.3245 2H63.1663L56.0391 11.9782H57.1082Z" fill="#F49974"/>
<path d="M31.4486 101.603V92.0703H28.5086L26.3704 98.663L24.1431 92.0703H21.2031V101.603H23.1631V94.9212L25.4795 101.603H27.1722L29.4886 94.8321V101.603H31.4486Z" fill="#F49974"/>
<path d="M56.8394 7.52514C58.3539 7.52514 58.9775 6.18878 58.9775 4.85241C58.9775 3.42696 58.5321 2.17969 56.8394 2.17969C55.2357 2.17969 54.7012 3.42696 54.7012 4.85241C54.7012 6.36696 55.2357 7.52514 56.8394 7.52514ZM56.8394 2.89241C57.8194 2.89241 57.9975 4.0506 57.9975 4.85241C57.9975 5.65423 57.8194 6.81241 56.8394 6.81241C55.8594 6.81241 55.6812 5.65423 55.6812 4.85241C55.6812 4.0506 55.8594 2.89241 56.8394 2.89241Z" fill="#F49974"/>
<path d="M39.021 92.0703H36.8828V101.603H39.021V92.0703Z" fill="#F49974"/>
<path d="M77.5091 4.22656V6.00838H96.2182V121.827H1.78182V6.00838H20.4909V4.22656H0V123.608H98V4.22656H77.5091Z" fill="#F49974"/>
<path d="M35.0135 69.5308C43.9226 69.5308 50.1589 63.829 50.9608 54.7418H43.2099C42.5862 59.5527 39.8244 62.849 35.0135 62.849C27.8862 62.849 25.1244 56.7908 25.1244 50.7327C25.1244 44.4072 27.7971 38.2599 35.0135 38.2599C38.9335 38.2599 42.408 41.0218 42.9426 44.5854H50.6935C49.7135 36.2109 42.9426 31.5781 35.0135 31.5781C23.8771 31.5781 17.1953 39.9527 17.1953 50.7327C17.1953 61.1563 23.8771 69.5308 35.0135 69.5308Z" fill="#F49974"/>
<path d="M51.5843 93.8521V92.0703H44.457V101.603H51.6734V99.8212H46.5952V97.5049H51.2279V95.9012H46.5952V93.8521H51.5843Z" fill="#F49974"/>
<path d="M45.8814 8.4153C46.7723 8.4153 47.6632 7.88075 48.1087 7.07894C48.0196 9.57348 47.3959 10.7317 45.9705 10.7317C45.0796 10.7317 44.3669 10.1971 44.2778 9.30621H43.1196C43.2978 10.9098 44.3669 11.7117 45.9705 11.7117C48.2869 11.7117 49.2669 9.84075 49.2669 6.63348C49.2669 3.06984 47.7523 2.08984 46.0596 2.08984C44.1887 2.08984 42.9414 3.33712 42.9414 5.20803C42.9414 7.16803 43.9214 8.4153 45.8814 8.4153ZM45.9705 3.15893C47.2178 3.15893 47.9305 4.13893 47.9305 5.29712C47.9305 6.4553 47.2178 7.34621 45.9705 7.34621C44.9014 7.34621 44.0996 6.36621 44.0996 5.38621C44.0996 4.22803 44.6341 3.15893 45.9705 3.15893Z" fill="#F49974"/>
<path d="M34.8345 8.4153C35.7254 8.4153 36.6163 7.88075 37.0618 7.07894C36.9727 9.57348 36.3491 10.7317 34.9236 10.7317C34.0327 10.7317 33.32 10.1971 33.2309 9.30621H32.0727C32.2509 10.9098 33.32 11.7117 34.9236 11.7117C37.24 11.7117 38.22 9.84075 38.22 6.63348C38.22 3.06984 36.7054 2.08984 35.0127 2.08984C33.1418 2.08984 31.8945 3.33712 31.8945 5.20803C31.8945 7.16803 32.8745 8.4153 34.8345 8.4153ZM34.9236 3.15893C36.1709 3.15893 36.8836 4.13893 36.8836 5.29712C36.8836 6.4553 36.1709 7.34621 34.9236 7.34621C33.8545 7.34621 33.0527 6.36621 33.0527 5.38621C33.0527 4.22803 33.5873 3.15893 34.9236 3.15893Z" fill="#F49974"/>
</svg>
