<svg width="100%" height="100%" style="overflow:visible;" preserveAspectRatio="none" viewBox="0 0 98 125.61" fill="none" xmlns="http://www.w3.org/2000/svg">
<path d="M61.2949 9.54382C61.2949 10.9693 61.8295 12.2165 63.4331 12.2165C64.9477 12.2165 65.5713 10.8802 65.5713 9.54382C65.5713 8.11837 65.1258 6.87109 63.4331 6.87109C61.8295 6.87109 61.2949 8.11837 61.2949 9.54382ZM64.5913 9.54382C64.5913 10.3456 64.4131 11.5038 63.4331 11.5038C62.4531 11.5038 62.2749 10.3456 62.2749 9.54382C62.2749 8.742 62.4531 7.58382 63.4331 7.58382C64.5022 7.58382 64.5913 8.742 64.5913 9.54382Z" fill="#F49974"/>
<path d="M62.8101 57.6563V42.8672H55.5938V58.9926C55.5938 65.4963 57.5538 69.7726 65.2156 69.7726C68.2447 69.7726 71.4519 68.4363 73.2338 65.4072H73.4119V69.0599H80.2719V42.8672H73.0556V56.5872C73.0556 61.9326 71.3628 64.0708 67.4428 64.0708C64.0574 64.0708 62.8101 61.9326 62.8101 57.6563Z" fill="#F49974"/>
<path d="M69.668 102.021H77.6862V100.239H72.4298L77.508 94.181V92.4883H70.0243V94.2701H74.7461L69.668 100.417V102.021Z" fill="#F49974"/>
<path d="M74.2133 89.7266L72.877 91.5975H74.2133L76.2624 89.7266H74.2133Z" fill="#F49974"/>
<path d="M56.75 92.4883V102.021H60.8482C63.7882 102.021 65.2136 99.9719 65.2136 97.2101C65.2136 94.0919 63.3427 92.4883 60.8482 92.4883H56.75ZM63.0755 97.3883C63.0755 99.5265 61.9173 100.239 60.67 100.239H58.7991V94.2701H60.3136C62.3627 94.2701 63.0755 95.5174 63.0755 97.3883Z" fill="#F49974"/>
<path d="M57.1082 12.3962L64.3245 2.41797H63.1663L56.0391 12.3962H57.1082Z" fill="#F49974"/>
<path d="M31.4486 102.021V92.4883H28.5086L26.3704 99.081L24.1431 92.4883H21.2031V102.021H23.1631V95.3392L25.4795 102.021H27.1722L29.4886 95.2501V102.021H31.4486Z" fill="#F49974"/>
<path d="M56.8394 7.94311C58.3539 7.94311 58.9775 6.60675 58.9775 5.27038C58.9775 3.84493 58.5321 2.59766 56.8394 2.59766C55.2357 2.59766 54.7012 3.84493 54.7012 5.27038C54.7012 6.78493 55.2357 7.94311 56.8394 7.94311ZM56.8394 3.31038C57.8194 3.31038 57.9975 4.46857 57.9975 5.27038C57.9975 6.0722 57.8194 7.23038 56.8394 7.23038C55.8594 7.23038 55.6812 6.0722 55.6812 5.27038C55.6812 4.46857 55.8594 3.31038 56.8394 3.31038Z" fill="#F49974"/>
<path d="M39.021 92.4883H36.8828V102.021H39.021V92.4883Z" fill="#F49974"/>
<path d="M77.5091 4.64453V6.42635H96.2182V122.245H1.78182V6.42635H20.4909V4.64453H0V124.026H98V4.64453H77.5091Z" fill="#F49974"/>
<path d="M35.0135 69.9488C43.9226 69.9488 50.1589 64.247 50.9608 55.1597H43.2099C42.5862 59.9706 39.8244 63.267 35.0135 63.267C27.8862 63.267 25.1244 57.2088 25.1244 51.1506C25.1244 44.8252 27.7971 38.6779 35.0135 38.6779C38.9335 38.6779 42.408 41.4397 42.9426 45.0034H50.6935C49.7135 36.6288 42.9426 31.9961 35.0135 31.9961C23.8771 31.9961 17.1953 40.3706 17.1953 51.1506C17.1953 61.5743 23.8771 69.9488 35.0135 69.9488Z" fill="#F49974"/>
<path d="M51.5843 94.2701V92.4883H44.457V102.021H51.6734V100.239H46.5952V97.9228H51.2279V96.3192H46.5952V94.2701H51.5843Z" fill="#F49974"/>
<path d="M45.8814 8.83327C46.7723 8.83327 47.6632 8.29872 48.1087 7.4969C48.0196 9.99145 47.3959 11.1496 45.9705 11.1496C45.0796 11.1496 44.3669 10.6151 44.2778 9.72418H43.1196C43.2978 11.3278 44.3669 12.1296 45.9705 12.1296C48.2869 12.1296 49.2669 10.2587 49.2669 7.05145C49.2669 3.48781 47.7523 2.50781 46.0596 2.50781C44.1887 2.50781 42.9414 3.75509 42.9414 5.62599C42.9414 7.58599 43.9214 8.83327 45.8814 8.83327ZM45.9705 3.5769C47.2178 3.5769 47.9305 4.5569 47.9305 5.71509C47.9305 6.87327 47.2178 7.76418 45.9705 7.76418C44.9014 7.76418 44.0996 6.78418 44.0996 5.80418C44.0996 4.64599 44.6341 3.5769 45.9705 3.5769Z" fill="#F49974"/>
<path d="M34.8345 8.83327C35.7254 8.83327 36.6163 8.29872 37.0618 7.4969C36.9727 9.99145 36.3491 11.1496 34.9236 11.1496C34.0327 11.1496 33.32 10.6151 33.2309 9.72418H32.0727C32.2509 11.3278 33.32 12.1296 34.9236 12.1296C37.24 12.1296 38.22 10.2587 38.22 7.05145C38.22 3.48781 36.7054 2.50781 35.0127 2.50781C33.1418 2.50781 31.8945 3.75509 31.8945 5.62599C31.8945 7.58599 32.8745 8.83327 34.8345 8.83327ZM34.9236 3.5769C36.1709 3.5769 36.8836 4.5569 36.8836 5.71509C36.8836 6.87327 36.1709 7.76418 34.9236 7.76418C33.8545 7.76418 33.0527 6.78418 33.0527 5.80418C33.0527 4.64599 33.5873 3.5769 34.9236 3.5769Z" fill="#F49974"/>
</svg>
