<svg width="100%" height="100%" style="overflow:visible;" preserveAspectRatio="none" viewBox="0 0 11 11.09" fill="none" xmlns="http://www.w3.org/2000/svg">
<path d="M4.7982 9.83062L5.5957 10.5456L6.3932 9.83062C7.31904 8.99646 8.08445 8.27687 8.68945 7.67187C9.29445 7.06687 9.7757 6.52375 10.1332 6.0425C10.4907 5.56125 10.7405 5.11896 10.8826 4.71562C11.0247 4.31229 11.0957 3.89979 11.0957 3.47812C11.0957 2.61646 10.807 1.89687 10.2295 1.31937C9.65195 0.741875 8.93237 0.453125 8.0707 0.453125C7.59404 0.453125 7.14029 0.553958 6.70945 0.755625C6.27862 0.957292 5.90737 1.24146 5.5957 1.60812C5.28404 1.24146 4.91279 0.957292 4.48195 0.755625C4.05112 0.553958 3.59737 0.453125 3.1207 0.453125C2.25904 0.453125 1.53945 0.741875 0.961953 1.31937C0.384453 1.89687 0.0957031 2.61646 0.0957031 3.47812C0.0957031 3.89979 0.166745 4.31229 0.308828 4.71562C0.450911 5.11896 0.700703 5.56125 1.0582 6.0425C1.4157 6.52375 1.89695 7.06687 2.50195 7.67187C3.10695 8.27687 3.87237 8.99646 4.7982 9.83062Z" fill="#F49974"/>
</svg>
