<svg width="100%" height="100%" style="overflow:visible;" preserveAspectRatio="none" viewBox="0 0 242.2 333" fill="none" xmlns="http://www.w3.org/2000/svg">
<path d="M208.6 40L205.425 37.15C204.225 36.0667 203.195 35.1 202.337 34.25C201.479 33.4 200.77 32.6 200.212 31.85C199.654 31.1 199.245 30.375 198.987 29.675C198.729 28.975 198.6 28.2417 198.6 27.475C198.6 25.9083 199.125 24.6042 200.175 23.5625C201.225 22.5208 202.533 22 204.1 22C204.966 22 205.791 22.1833 206.575 22.55C207.358 22.9167 208.033 23.4333 208.6 24.1C209.166 23.4333 209.841 22.9167 210.625 22.55C211.408 22.1833 212.233 22 213.1 22C214.45 22 215.583 22.3792 216.5 23.1375C217.416 23.8958 218.041 24.85 218.375 26H216.25C215.95 25.3333 215.508 24.8333 214.925 24.5C214.341 24.1667 213.733 24 213.1 24C212.25 24 211.516 24.2292 210.9 24.6875C210.283 25.1458 209.708 25.75 209.175 26.5H208.025C207.508 25.75 206.92 25.1458 206.262 24.6875C205.604 24.2292 204.883 24 204.1 24C203.15 24 202.329 24.3292 201.637 24.9875C200.945 25.6458 200.6 26.475 200.6 27.475C200.6 28.025 200.716 28.5833 200.95 29.15C201.183 29.7167 201.6 30.3708 202.2 31.1125C202.8 31.8542 203.616 32.7208 204.65 33.7125C205.683 34.7042 207 35.9 208.6 37.3C209.033 36.9167 209.541 36.475 210.125 35.975C210.708 35.475 211.175 35.0583 211.525 34.725L211.75 34.95L212.237 35.4375L212.725 35.925L212.95 36.15C212.583 36.4833 212.116 36.8958 211.55 37.3875C210.983 37.8792 210.483 38.3167 210.05 38.7L208.6 40ZM215.6 36V33H212.6V31H215.6V28H217.6V31H220.6V33H217.6V36H215.6Z" fill="#F4F3F3"/>
</svg>
