<svg width="100%" height="100%" style="overflow:visible;" preserveAspectRatio="none" viewBox="0 0 242.2 300" fill="none" xmlns="http://www.w3.org/2000/svg">
<path d="M209 40.6094L205.825 37.7594C204.625 36.676 203.596 35.7094 202.737 34.8594C201.879 34.0094 201.171 33.2094 200.613 32.4594C200.054 31.7094 199.646 30.9844 199.388 30.2844C199.129 29.5844 199 28.851 199 28.0844C199 26.5177 199.525 25.2135 200.575 24.1719C201.625 23.1302 202.933 22.6094 204.5 22.6094C205.367 22.6094 206.192 22.7927 206.975 23.1594C207.758 23.526 208.433 24.0427 209 24.7094C209.567 24.0427 210.242 23.526 211.025 23.1594C211.808 22.7927 212.633 22.6094 213.5 22.6094C214.85 22.6094 215.983 22.9885 216.9 23.7469C217.817 24.5052 218.442 25.4594 218.775 26.6094H216.65C216.35 25.9427 215.908 25.4427 215.325 25.1094C214.742 24.776 214.133 24.6094 213.5 24.6094C212.65 24.6094 211.917 24.8385 211.3 25.2969C210.683 25.7552 210.108 26.3594 209.575 27.1094H208.425C207.908 26.3594 207.321 25.7552 206.662 25.2969C206.004 24.8385 205.283 24.6094 204.5 24.6094C203.55 24.6094 202.729 24.9385 202.038 25.5969C201.346 26.2552 201 27.0844 201 28.0844C201 28.6344 201.117 29.1927 201.35 29.7594C201.583 30.326 202 30.9802 202.6 31.7219C203.2 32.4635 204.017 33.3302 205.05 34.3219C206.083 35.3135 207.4 36.5094 209 37.9094C209.433 37.526 209.942 37.0844 210.525 36.5844C211.108 36.0844 211.575 35.6677 211.925 35.3344L212.15 35.5594L212.637 36.0469L213.125 36.5344L213.35 36.7594C212.983 37.0927 212.517 37.5052 211.95 37.9969C211.383 38.4885 210.883 38.926 210.45 39.3094L209 40.6094ZM216 36.6094V33.6094H213V31.6094H216V28.6094H218V31.6094H221V33.6094H218V36.6094H216Z" fill="#F4F3F3"/>
</svg>
