<svg width="100%" height="100%" style="overflow:visible;" preserveAspectRatio="none" viewBox="0 0 242.2 300" fill="none" xmlns="http://www.w3.org/2000/svg">
<path d="M208.6 40.6094L205.425 37.7594C204.225 36.676 203.195 35.7094 202.337 34.8594C201.479 34.0094 200.77 33.2094 200.212 32.4594C199.654 31.7094 199.245 30.9844 198.987 30.2844C198.729 29.5844 198.6 28.851 198.6 28.0844C198.6 26.5177 199.125 25.2135 200.175 24.1719C201.225 23.1302 202.533 22.6094 204.1 22.6094C204.966 22.6094 205.791 22.7927 206.575 23.1594C207.358 23.526 208.033 24.0427 208.6 24.7094C209.166 24.0427 209.841 23.526 210.625 23.1594C211.408 22.7927 212.233 22.6094 213.1 22.6094C214.45 22.6094 215.583 22.9885 216.5 23.7469C217.416 24.5052 218.041 25.4594 218.375 26.6094H216.25C215.95 25.9427 215.508 25.4427 214.925 25.1094C214.341 24.776 213.733 24.6094 213.1 24.6094C212.25 24.6094 211.516 24.8385 210.9 25.2969C210.283 25.7552 209.708 26.3594 209.175 27.1094H208.025C207.508 26.3594 206.92 25.7552 206.262 25.2969C205.604 24.8385 204.883 24.6094 204.1 24.6094C203.15 24.6094 202.329 24.9385 201.637 25.5969C200.945 26.2552 200.6 27.0844 200.6 28.0844C200.6 28.6344 200.716 29.1927 200.95 29.7594C201.183 30.326 201.6 30.9802 202.2 31.7219C202.8 32.4635 203.616 33.3302 204.65 34.3219C205.683 35.3135 207 36.5094 208.6 37.9094C209.033 37.526 209.541 37.0844 210.125 36.5844C210.708 36.0844 211.175 35.6677 211.525 35.3344L211.75 35.5594L212.237 36.0469L212.725 36.5344L212.95 36.7594C212.583 37.0927 212.116 37.5052 211.55 37.9969C210.983 38.4885 210.483 38.926 210.05 39.3094L208.6 40.6094ZM215.6 36.6094V33.6094H212.6V31.6094H215.6V28.6094H217.6V31.6094H220.6V33.6094H217.6V36.6094H215.6Z" fill="#F4F3F3"/>
</svg>
