<svg width="100%" height="100%" style="overflow:visible;" preserveAspectRatio="none" viewBox="0 0 242.2 333" fill="none" xmlns="http://www.w3.org/2000/svg">
<path d="M208.799 40L205.624 37.15C204.424 36.0667 203.395 35.1 202.536 34.25C201.678 33.4 200.97 32.6 200.411 31.85C199.853 31.1 199.445 30.375 199.186 29.675C198.928 28.975 198.799 28.2417 198.799 27.475C198.799 25.9083 199.324 24.6042 200.374 23.5625C201.424 22.5208 202.732 22 204.299 22C205.165 22 205.99 22.1833 206.774 22.55C207.557 22.9167 208.232 23.4333 208.799 24.1C209.365 23.4333 210.04 22.9167 210.824 22.55C211.607 22.1833 212.432 22 213.299 22C214.649 22 215.782 22.3792 216.699 23.1375C217.615 23.8958 218.24 24.85 218.574 26H216.449C216.149 25.3333 215.707 24.8333 215.124 24.5C214.54 24.1667 213.932 24 213.299 24C212.449 24 211.715 24.2292 211.099 24.6875C210.482 25.1458 209.907 25.75 209.374 26.5H208.224C207.707 25.75 207.12 25.1458 206.461 24.6875C205.803 24.2292 205.082 24 204.299 24C203.349 24 202.528 24.3292 201.836 24.9875C201.145 25.6458 200.799 26.475 200.799 27.475C200.799 28.025 200.915 28.5833 201.149 29.15C201.382 29.7167 201.799 30.3708 202.399 31.1125C202.999 31.8542 203.815 32.7208 204.849 33.7125C205.882 34.7042 207.199 35.9 208.799 37.3C209.232 36.9167 209.74 36.475 210.324 35.975C210.907 35.475 211.374 35.0583 211.724 34.725L211.949 34.95L212.436 35.4375L212.924 35.925L213.149 36.15C212.782 36.4833 212.315 36.8958 211.749 37.3875C211.182 37.8792 210.682 38.3167 210.249 38.7L208.799 40ZM215.799 36V33H212.799V31H215.799V28H217.799V31H220.799V33H217.799V36H215.799Z" fill="#F4F3F3"/>
</svg>
