<svg width="100%" height="100%" style="overflow:visible;" preserveAspectRatio="none" viewBox="0 0 242.2 333" fill="none" xmlns="http://www.w3.org/2000/svg">
<path d="M208.199 40L205.024 37.15C203.824 36.0667 202.795 35.1 201.937 34.25C201.078 33.4 200.37 32.6 199.812 31.85C199.253 31.1 198.845 30.375 198.587 29.675C198.328 28.975 198.199 28.2417 198.199 27.475C198.199 25.9083 198.724 24.6042 199.774 23.5625C200.824 22.5208 202.133 22 203.699 22C204.566 22 205.391 22.1833 206.174 22.55C206.958 22.9167 207.633 23.4333 208.199 24.1C208.766 23.4333 209.441 22.9167 210.224 22.55C211.008 22.1833 211.833 22 212.699 22C214.049 22 215.183 22.3792 216.099 23.1375C217.016 23.8958 217.641 24.85 217.974 26H215.849C215.549 25.3333 215.108 24.8333 214.524 24.5C213.941 24.1667 213.333 24 212.699 24C211.849 24 211.116 24.2292 210.499 24.6875C209.883 25.1458 209.308 25.75 208.774 26.5H207.624C207.108 25.75 206.52 25.1458 205.862 24.6875C205.203 24.2292 204.483 24 203.699 24C202.749 24 201.928 24.3292 201.237 24.9875C200.545 25.6458 200.199 26.475 200.199 27.475C200.199 28.025 200.316 28.5833 200.549 29.15C200.783 29.7167 201.199 30.3708 201.799 31.1125C202.399 31.8542 203.216 32.7208 204.249 33.7125C205.283 34.7042 206.599 35.9 208.199 37.3C208.633 36.9167 209.141 36.475 209.724 35.975C210.308 35.475 210.774 35.0583 211.124 34.725L211.349 34.95L211.837 35.4375L212.324 35.925L212.549 36.15C212.183 36.4833 211.716 36.8958 211.149 37.3875C210.583 37.8792 210.083 38.3167 209.649 38.7L208.199 40ZM215.199 36V33H212.199V31H215.199V28H217.199V31H220.199V33H217.199V36H215.199Z" fill="#F4F3F3"/>
</svg>
