<svg width="100%" height="100%" style="overflow:visible;" preserveAspectRatio="none" viewBox="0 0 242.2 300" fill="none" xmlns="http://www.w3.org/2000/svg">
<path d="M208.398 40.6094L205.223 37.7594C204.023 36.676 202.994 35.7094 202.136 34.8594C201.278 34.0094 200.569 33.2094 200.011 32.4594C199.453 31.7094 199.044 30.9844 198.786 30.2844C198.528 29.5844 198.398 28.851 198.398 28.0844C198.398 26.5177 198.923 25.2135 199.973 24.1719C201.023 23.1302 202.332 22.6094 203.898 22.6094C204.765 22.6094 205.59 22.7927 206.373 23.1594C207.157 23.526 207.832 24.0427 208.398 24.7094C208.965 24.0427 209.64 23.526 210.423 23.1594C211.207 22.7927 212.032 22.6094 212.898 22.6094C214.248 22.6094 215.382 22.9885 216.298 23.7469C217.215 24.5052 217.84 25.4594 218.173 26.6094H216.048C215.748 25.9427 215.307 25.4427 214.723 25.1094C214.14 24.776 213.532 24.6094 212.898 24.6094C212.048 24.6094 211.315 24.8385 210.698 25.2969C210.082 25.7552 209.507 26.3594 208.973 27.1094H207.823C207.307 26.3594 206.719 25.7552 206.061 25.2969C205.403 24.8385 204.682 24.6094 203.898 24.6094C202.948 24.6094 202.128 24.9385 201.436 25.5969C200.744 26.2552 200.398 27.0844 200.398 28.0844C200.398 28.6344 200.515 29.1927 200.748 29.7594C200.982 30.326 201.398 30.9802 201.998 31.7219C202.598 32.4635 203.415 33.3302 204.448 34.3219C205.482 35.3135 206.798 36.5094 208.398 37.9094C208.832 37.526 209.34 37.0844 209.923 36.5844C210.507 36.0844 210.973 35.6677 211.323 35.3344L211.548 35.5594L212.036 36.0469L212.523 36.5344L212.748 36.7594C212.382 37.0927 211.915 37.5052 211.348 37.9969C210.782 38.4885 210.282 38.926 209.848 39.3094L208.398 40.6094ZM215.398 36.6094V33.6094H212.398V31.6094H215.398V28.6094H217.398V31.6094H220.398V33.6094H217.398V36.6094H215.398Z" fill="#F4F3F3"/>
</svg>
