<svg width="100%" height="100%" style="overflow:visible;" preserveAspectRatio="none" viewBox="0 0 242.2 300" fill="none" xmlns="http://www.w3.org/2000/svg">
<path d="M208.799 40.6094L205.624 37.7594C204.424 36.676 203.395 35.7094 202.536 34.8594C201.678 34.0094 200.97 33.2094 200.411 32.4594C199.853 31.7094 199.445 30.9844 199.186 30.2844C198.928 29.5844 198.799 28.851 198.799 28.0844C198.799 26.5177 199.324 25.2135 200.374 24.1719C201.424 23.1302 202.732 22.6094 204.299 22.6094C205.165 22.6094 205.99 22.7927 206.774 23.1594C207.557 23.526 208.232 24.0427 208.799 24.7094C209.365 24.0427 210.04 23.526 210.824 23.1594C211.607 22.7927 212.432 22.6094 213.299 22.6094C214.649 22.6094 215.782 22.9885 216.699 23.7469C217.615 24.5052 218.24 25.4594 218.574 26.6094H216.449C216.149 25.9427 215.707 25.4427 215.124 25.1094C214.54 24.776 213.932 24.6094 213.299 24.6094C212.449 24.6094 211.715 24.8385 211.099 25.2969C210.482 25.7552 209.907 26.3594 209.374 27.1094H208.224C207.707 26.3594 207.12 25.7552 206.461 25.2969C205.803 24.8385 205.082 24.6094 204.299 24.6094C203.349 24.6094 202.528 24.9385 201.836 25.5969C201.145 26.2552 200.799 27.0844 200.799 28.0844C200.799 28.6344 200.915 29.1927 201.149 29.7594C201.382 30.326 201.799 30.9802 202.399 31.7219C202.999 32.4635 203.815 33.3302 204.849 34.3219C205.882 35.3135 207.199 36.5094 208.799 37.9094C209.232 37.526 209.74 37.0844 210.324 36.5844C210.907 36.0844 211.374 35.6677 211.724 35.3344L211.949 35.5594L212.436 36.0469L212.924 36.5344L213.149 36.7594C212.782 37.0927 212.315 37.5052 211.749 37.9969C211.182 38.4885 210.682 38.926 210.249 39.3094L208.799 40.6094ZM215.799 36.6094V33.6094H212.799V31.6094H215.799V28.6094H217.799V31.6094H220.799V33.6094H217.799V36.6094H215.799Z" fill="#F4F3F3"/>
</svg>
