<svg width="100%" height="100%" style="overflow:visible;" preserveAspectRatio="none" viewBox="0 0 11 24" fill="none" xmlns="http://www.w3.org/2000/svg">
<path d="M5.62665 18.4143C8.21274 18.4143 10.3827 16.5656 10.9991 14.062H8.76507C8.23011 15.343 7.0084 16.2394 5.58642 16.2394C5.01579 16.2394 4.47901 16.0949 4.00441 15.8395L8.10575 10.1186C8.37917 10.4209 8.60412 10.773 8.76598 11.1595H11C10.7293 10.0593 10.1578 9.08443 9.38233 8.33823L10.4806 6.80469H8.32247L7.94297 7.33468C7.23793 6.99506 6.45241 6.80469 5.62574 6.80469C2.56139 6.80469 0.076814 9.40396 0.076814 12.6098C0.076814 14.0649 0.59074 15.3927 1.43661 16.4116L0 18.4148L5.62665 18.4143ZM2.11788 12.6107C2.11788 10.6065 3.67063 8.98207 5.58642 8.98207C5.95403 8.98207 6.30701 9.04234 6.63896 9.15331L2.70862 14.636C2.33552 14.0572 2.11788 13.3608 2.11788 12.6107Z" fill="#F4F3F3"/>
</svg>
