<svg width="100%" height="100%" style="overflow:visible;" preserveAspectRatio="none" viewBox="0 0 242.2 300" fill="none" xmlns="http://www.w3.org/2000/svg">
<path d="M208.199 40.6094L205.024 37.7594C203.824 36.676 202.795 35.7094 201.937 34.8594C201.078 34.0094 200.37 33.2094 199.812 32.4594C199.253 31.7094 198.845 30.9844 198.587 30.2844C198.328 29.5844 198.199 28.851 198.199 28.0844C198.199 26.5177 198.724 25.2135 199.774 24.1719C200.824 23.1302 202.133 22.6094 203.699 22.6094C204.566 22.6094 205.391 22.7927 206.174 23.1594C206.958 23.526 207.633 24.0427 208.199 24.7094C208.766 24.0427 209.441 23.526 210.224 23.1594C211.008 22.7927 211.833 22.6094 212.699 22.6094C214.049 22.6094 215.183 22.9885 216.099 23.7469C217.016 24.5052 217.641 25.4594 217.974 26.6094H215.849C215.549 25.9427 215.108 25.4427 214.524 25.1094C213.941 24.776 213.333 24.6094 212.699 24.6094C211.849 24.6094 211.116 24.8385 210.499 25.2969C209.883 25.7552 209.308 26.3594 208.774 27.1094H207.624C207.108 26.3594 206.52 25.7552 205.862 25.2969C205.203 24.8385 204.483 24.6094 203.699 24.6094C202.749 24.6094 201.928 24.9385 201.237 25.5969C200.545 26.2552 200.199 27.0844 200.199 28.0844C200.199 28.6344 200.316 29.1927 200.549 29.7594C200.783 30.326 201.199 30.9802 201.799 31.7219C202.399 32.4635 203.216 33.3302 204.249 34.3219C205.283 35.3135 206.599 36.5094 208.199 37.9094C208.633 37.526 209.141 37.0844 209.724 36.5844C210.308 36.0844 210.774 35.6677 211.124 35.3344L211.349 35.5594L211.837 36.0469L212.324 36.5344L212.549 36.7594C212.183 37.0927 211.716 37.5052 211.149 37.9969C210.583 38.4885 210.083 38.926 209.649 39.3094L208.199 40.6094ZM215.199 36.6094V33.6094H212.199V31.6094H215.199V28.6094H217.199V31.6094H220.199V33.6094H217.199V36.6094H215.199Z" fill="#F4F3F3"/>
</svg>
