<svg width="100%" height="100%" style="overflow:visible;" preserveAspectRatio="none" viewBox="0 0 305.5 342" fill="none" xmlns="http://www.w3.org/2000/svg" xmlns:xlink="http://www.w3.org/1999/xlink">
<rect width="305.5" height="342" transform="translate(0.5 0.609375)" fill="url(#pattern0_9142_830)"/>
<path d="M272 40.6094L268.825 37.7594C267.625 36.676 266.596 35.7094 265.737 34.8594C264.879 34.0094 264.171 33.2094 263.613 32.4594C263.054 31.7094 262.646 30.9844 262.388 30.2844C262.129 29.5844 262 28.851 262 28.0844C262 26.5177 262.525 25.2135 263.575 24.1719C264.625 23.1302 265.933 22.6094 267.5 22.6094C268.367 22.6094 269.192 22.7927 269.975 23.1594C270.758 23.526 271.433 24.0427 272 24.7094C272.567 24.0427 273.242 23.526 274.025 23.1594C274.808 22.7927 275.633 22.6094 276.5 22.6094C277.85 22.6094 278.983 22.9885 279.9 23.7469C280.817 24.5052 281.442 25.4594 281.775 26.6094H279.65C279.35 25.9427 278.908 25.4427 278.325 25.1094C277.742 24.776 277.133 24.6094 276.5 24.6094C275.65 24.6094 274.917 24.8385 274.3 25.2969C273.683 25.7552 273.108 26.3594 272.575 27.1094H271.425C270.908 26.3594 270.321 25.7552 269.662 25.2969C269.004 24.8385 268.283 24.6094 267.5 24.6094C266.55 24.6094 265.729 24.9385 265.038 25.5969C264.346 26.2552 264 27.0844 264 28.0844C264 28.6344 264.117 29.1927 264.35 29.7594C264.583 30.326 265 30.9802 265.6 31.7219C266.2 32.4635 267.017 33.3302 268.05 34.3219C269.083 35.3135 270.4 36.5094 272 37.9094C272.433 37.526 272.942 37.0844 273.525 36.5844C274.108 36.0844 274.575 35.6677 274.925 35.3344L275.15 35.5594L275.637 36.0469L276.125 36.5344L276.35 36.7594C275.983 37.0927 275.517 37.5052 274.95 37.9969C274.383 38.4885 273.883 38.926 273.45 39.3094L272 40.6094ZM279 36.6094V33.6094H276V31.6094H279V28.6094H281V31.6094H284V33.6094H281V36.6094H279Z" fill="#231F20"/>
<defs>
<pattern id="pattern0_9142_830" patternContentUnits="objectBoundingBox" width="1" height="1">
<use xlink:href="#image0_9142_830" transform="matrix(0.000366166 0 0 0.000327087 0 -0.324845)"/>
</pattern>
<image id="image0_9142_830" width="2731" height="4096" xlink:href="/assets/frame-76.png"/>
</defs>
</svg>
