<svg width="100%" height="100%" style="overflow:visible;" preserveAspectRatio="none" viewBox="0 0 622 303" fill="none" xmlns="http://www.w3.org/2000/svg">
<path d="M588 40.6094L584.825 37.7594C583.625 36.676 582.596 35.7094 581.737 34.8594C580.879 34.0094 580.171 33.2094 579.613 32.4594C579.054 31.7094 578.646 30.9844 578.388 30.2844C578.129 29.5844 578 28.851 578 28.0844C578 26.5177 578.525 25.2135 579.575 24.1719C580.625 23.1302 581.933 22.6094 583.5 22.6094C584.367 22.6094 585.192 22.7927 585.975 23.1594C586.758 23.526 587.433 24.0427 588 24.7094C588.567 24.0427 589.242 23.526 590.025 23.1594C590.808 22.7927 591.633 22.6094 592.5 22.6094C593.85 22.6094 594.983 22.9885 595.9 23.7469C596.817 24.5052 597.442 25.4594 597.775 26.6094H595.65C595.35 25.9427 594.908 25.4427 594.325 25.1094C593.742 24.776 593.133 24.6094 592.5 24.6094C591.65 24.6094 590.917 24.8385 590.3 25.2969C589.683 25.7552 589.108 26.3594 588.575 27.1094H587.425C586.908 26.3594 586.321 25.7552 585.662 25.2969C585.004 24.8385 584.283 24.6094 583.5 24.6094C582.55 24.6094 581.729 24.9385 581.038 25.5969C580.346 26.2552 580 27.0844 580 28.0844C580 28.6344 580.117 29.1927 580.35 29.7594C580.583 30.326 581 30.9802 581.6 31.7219C582.2 32.4635 583.017 33.3302 584.05 34.3219C585.083 35.3135 586.4 36.5094 588 37.9094C588.433 37.526 588.942 37.0844 589.525 36.5844C590.108 36.0844 590.575 35.6677 590.925 35.3344L591.15 35.5594L591.637 36.0469L592.125 36.5344L592.35 36.7594C591.983 37.0927 591.517 37.5052 590.95 37.9969C590.383 38.4885 589.883 38.926 589.45 39.3094L588 40.6094ZM595 36.6094V33.6094H592V31.6094H595V28.6094H597V31.6094H600V33.6094H597V36.6094H595Z" fill="#F4F3F3"/>
</svg>
