<svg width="100%" height="100%" style="overflow:visible;" preserveAspectRatio="none" viewBox="0 0 242.2 311" fill="none" xmlns="http://www.w3.org/2000/svg">
<path d="M208.398 40L205.223 37.15C204.023 36.0667 202.994 35.1 202.136 34.25C201.278 33.4 200.569 32.6 200.011 31.85C199.453 31.1 199.044 30.375 198.786 29.675C198.528 28.975 198.398 28.2417 198.398 27.475C198.398 25.9083 198.923 24.6042 199.973 23.5625C201.023 22.5208 202.332 22 203.898 22C204.765 22 205.59 22.1833 206.373 22.55C207.157 22.9167 207.832 23.4333 208.398 24.1C208.965 23.4333 209.64 22.9167 210.423 22.55C211.207 22.1833 212.032 22 212.898 22C214.248 22 215.382 22.3792 216.298 23.1375C217.215 23.8958 217.84 24.85 218.173 26H216.048C215.748 25.3333 215.307 24.8333 214.723 24.5C214.14 24.1667 213.532 24 212.898 24C212.048 24 211.315 24.2292 210.698 24.6875C210.082 25.1458 209.507 25.75 208.973 26.5H207.823C207.307 25.75 206.719 25.1458 206.061 24.6875C205.403 24.2292 204.682 24 203.898 24C202.948 24 202.128 24.3292 201.436 24.9875C200.744 25.6458 200.398 26.475 200.398 27.475C200.398 28.025 200.515 28.5833 200.748 29.15C200.982 29.7167 201.398 30.3708 201.998 31.1125C202.598 31.8542 203.415 32.7208 204.448 33.7125C205.482 34.7042 206.798 35.9 208.398 37.3C208.832 36.9167 209.34 36.475 209.923 35.975C210.507 35.475 210.973 35.0583 211.323 34.725L211.548 34.95L212.036 35.4375L212.523 35.925L212.748 36.15C212.382 36.4833 211.915 36.8958 211.348 37.3875C210.782 37.8792 210.282 38.3167 209.848 38.7L208.398 40ZM215.398 36V33H212.398V31H215.398V28H217.398V31H220.398V33H217.398V36H215.398Z" fill="#F4F3F3"/>
</svg>
