<svg width="100%" height="100%" style="overflow:visible;" preserveAspectRatio="none" viewBox="0 0 305.5 342" fill="none" xmlns="http://www.w3.org/2000/svg" xmlns:xlink="http://www.w3.org/1999/xlink">
<rect width="305.5" height="342" transform="translate(0 0.609375)" fill="url(#pattern0_9142_1210)"/>
<path d="M271.5 40.6094L268.325 37.7594C267.125 36.676 266.096 35.7094 265.237 34.8594C264.379 34.0094 263.671 33.2094 263.113 32.4594C262.554 31.7094 262.146 30.9844 261.888 30.2844C261.629 29.5844 261.5 28.851 261.5 28.0844C261.5 26.5177 262.025 25.2135 263.075 24.1719C264.125 23.1302 265.433 22.6094 267 22.6094C267.867 22.6094 268.692 22.7927 269.475 23.1594C270.258 23.526 270.933 24.0427 271.5 24.7094C272.067 24.0427 272.742 23.526 273.525 23.1594C274.308 22.7927 275.133 22.6094 276 22.6094C277.35 22.6094 278.483 22.9885 279.4 23.7469C280.317 24.5052 280.942 25.4594 281.275 26.6094H279.15C278.85 25.9427 278.408 25.4427 277.825 25.1094C277.242 24.776 276.633 24.6094 276 24.6094C275.15 24.6094 274.417 24.8385 273.8 25.2969C273.183 25.7552 272.608 26.3594 272.075 27.1094H270.925C270.408 26.3594 269.821 25.7552 269.162 25.2969C268.504 24.8385 267.783 24.6094 267 24.6094C266.05 24.6094 265.229 24.9385 264.538 25.5969C263.846 26.2552 263.5 27.0844 263.5 28.0844C263.5 28.6344 263.617 29.1927 263.85 29.7594C264.083 30.326 264.5 30.9802 265.1 31.7219C265.7 32.4635 266.517 33.3302 267.55 34.3219C268.583 35.3135 269.9 36.5094 271.5 37.9094C271.933 37.526 272.442 37.0844 273.025 36.5844C273.608 36.0844 274.075 35.6677 274.425 35.3344L274.65 35.5594L275.137 36.0469L275.625 36.5344L275.85 36.7594C275.483 37.0927 275.017 37.5052 274.45 37.9969C273.883 38.4885 273.383 38.926 272.95 39.3094L271.5 40.6094ZM278.5 36.6094V33.6094H275.5V31.6094H278.5V28.6094H280.5V31.6094H283.5V33.6094H280.5V36.6094H278.5Z" fill="#231F20"/>
<defs>
<pattern id="pattern0_9142_1210" patternContentUnits="objectBoundingBox" width="1" height="1">
<use xlink:href="#image0_9142_1210" transform="matrix(0.000366166 0 0 0.000327087 0 -0.169874)"/>
</pattern>
<image id="image0_9142_1210" width="2731" height="4096" xlink:href="/assets/frame-118.png"/>
</defs>
</svg>
