<svg width="100%" height="100%" style="overflow:visible;" preserveAspectRatio="none" viewBox="0 0 240 342" fill="none" xmlns="http://www.w3.org/2000/svg" xmlns:xlink="http://www.w3.org/1999/xlink">
<rect width="240" height="342" transform="translate(0.5 0.609375)" fill="url(#pattern0_9142_892)"/>
<path d="M206.5 40.6094L203.325 37.7594C202.125 36.676 201.096 35.7094 200.237 34.8594C199.379 34.0094 198.671 33.2094 198.113 32.4594C197.554 31.7094 197.146 30.9844 196.888 30.2844C196.629 29.5844 196.5 28.851 196.5 28.0844C196.5 26.5177 197.025 25.2135 198.075 24.1719C199.125 23.1302 200.433 22.6094 202 22.6094C202.867 22.6094 203.692 22.7927 204.475 23.1594C205.258 23.526 205.933 24.0427 206.5 24.7094C207.067 24.0427 207.742 23.526 208.525 23.1594C209.308 22.7927 210.133 22.6094 211 22.6094C212.35 22.6094 213.483 22.9885 214.4 23.7469C215.317 24.5052 215.942 25.4594 216.275 26.6094H214.15C213.85 25.9427 213.408 25.4427 212.825 25.1094C212.242 24.776 211.633 24.6094 211 24.6094C210.15 24.6094 209.417 24.8385 208.8 25.2969C208.183 25.7552 207.608 26.3594 207.075 27.1094H205.925C205.408 26.3594 204.821 25.7552 204.162 25.2969C203.504 24.8385 202.783 24.6094 202 24.6094C201.05 24.6094 200.229 24.9385 199.538 25.5969C198.846 26.2552 198.5 27.0844 198.5 28.0844C198.5 28.6344 198.617 29.1927 198.85 29.7594C199.083 30.326 199.5 30.9802 200.1 31.7219C200.7 32.4635 201.517 33.3302 202.55 34.3219C203.583 35.3135 204.9 36.5094 206.5 37.9094C206.933 37.526 207.442 37.0844 208.025 36.5844C208.608 36.0844 209.075 35.6677 209.425 35.3344L209.65 35.5594L210.137 36.0469L210.625 36.5344L210.85 36.7594C210.483 37.0927 210.017 37.5052 209.45 37.9969C208.883 38.4885 208.383 38.926 207.95 39.3094L206.5 40.6094ZM213.5 36.6094V33.6094H210.5V31.6094H213.5V28.6094H215.5V31.6094H218.5V33.6094H215.5V36.6094H213.5Z" fill="#231F20"/>
<defs>
<pattern id="pattern0_9142_892" patternContentUnits="objectBoundingBox" width="1" height="1">
<use xlink:href="#image0_9142_892" transform="matrix(0.0003663 0 0 0.000257053 0 -0.0264443)"/>
</pattern>
<image id="image0_9142_892" width="2730" height="4096" xlink:href="/assets/frame-81.png"/>
</defs>
</svg>
