<svg width="100%" height="100%" style="overflow:visible;" preserveAspectRatio="none" viewBox="0 0 242.2 333" fill="none" xmlns="http://www.w3.org/2000/svg">
<path d="M209 40L205.825 37.15C204.625 36.0667 203.596 35.1 202.737 34.25C201.879 33.4 201.171 32.6 200.613 31.85C200.054 31.1 199.646 30.375 199.388 29.675C199.129 28.975 199 28.2417 199 27.475C199 25.9083 199.525 24.6042 200.575 23.5625C201.625 22.5208 202.933 22 204.5 22C205.367 22 206.192 22.1833 206.975 22.55C207.758 22.9167 208.433 23.4333 209 24.1C209.567 23.4333 210.242 22.9167 211.025 22.55C211.808 22.1833 212.633 22 213.5 22C214.85 22 215.983 22.3792 216.9 23.1375C217.817 23.8958 218.442 24.85 218.775 26H216.65C216.35 25.3333 215.908 24.8333 215.325 24.5C214.742 24.1667 214.133 24 213.5 24C212.65 24 211.917 24.2292 211.3 24.6875C210.683 25.1458 210.108 25.75 209.575 26.5H208.425C207.908 25.75 207.321 25.1458 206.662 24.6875C206.004 24.2292 205.283 24 204.5 24C203.55 24 202.729 24.3292 202.038 24.9875C201.346 25.6458 201 26.475 201 27.475C201 28.025 201.117 28.5833 201.35 29.15C201.583 29.7167 202 30.3708 202.6 31.1125C203.2 31.8542 204.017 32.7208 205.05 33.7125C206.083 34.7042 207.4 35.9 209 37.3C209.433 36.9167 209.942 36.475 210.525 35.975C211.108 35.475 211.575 35.0583 211.925 34.725L212.15 34.95L212.637 35.4375L213.125 35.925L213.35 36.15C212.983 36.4833 212.517 36.8958 211.95 37.3875C211.383 37.8792 210.883 38.3167 210.45 38.7L209 40ZM216 36V33H213V31H216V28H218V31H221V33H218V36H216Z" fill="#F4F3F3"/>
</svg>
