<svg width="100%" height="100%" style="overflow:visible;" preserveAspectRatio="none" viewBox="0 0 51.17 5.89" fill="none" xmlns="http://www.w3.org/2000/svg">
<path d="M3.37305 4.50098C3.37305 4.91135 3.37304 5.44384 2.70384 5.44384C2.10791 5.44384 1.97114 5.04325 1.97114 4.48633V4.22741H0.828125V4.72571C0.828125 5.98122 1.76109 6.50395 2.71849 6.50395C4.43301 6.50395 4.63329 5.29728 4.63329 4.55472V0.617188H3.36816V4.4961L3.37305 4.50098Z" fill="#231F20"/>
<path d="M9.19091 3.89911H11.9752V2.91718H9.19091V1.68608H12.2243V0.621094H7.92578V6.37107H12.2878V5.30608H9.19091V3.89911Z" fill="#231F20"/>
<path d="M20.1514 4.58305H20.1368L19.155 0.621094H17.9729L16.9715 4.5342H16.9569L16.0483 0.621094H14.7832L16.3072 6.37107H17.587L18.5444 2.45796H18.5591L19.5311 6.37107H20.7865L22.3349 0.621094H21.0942L20.1514 4.58305Z" fill="#231F20"/>
<path d="M26.3501 3.89911H29.1392V2.91718H26.3501V1.68608H29.3883V0.621094H25.0898V6.37107H29.4518V5.30608H26.3501V3.89911Z" fill="#231F20"/>
<path d="M33.7456 0.621094H32.4805V6.37107H36.5445V5.30608H33.7456V0.621094Z" fill="#231F20"/>
<path d="M43.3003 3.66462V3.64997C43.9451 3.39105 44.2088 2.88298 44.2088 2.20881C44.2088 1.33923 43.5592 0.621094 42.5285 0.621094H39.4316V6.36618H40.6968V4.11895H41.9619C42.5969 4.11895 42.8314 4.38276 42.9193 4.98853C42.9828 5.44775 42.9779 6.00467 43.1196 6.36618H44.3847C44.1502 6.05352 44.1698 5.36958 44.1454 5.00807C44.1063 4.42184 43.9304 3.83072 43.3101 3.66462H43.3003ZM42.0791 3.22006H40.6968V1.60304H42.0791C42.6506 1.60304 42.9486 1.84241 42.9486 2.39933C42.9486 2.95626 42.6506 3.22006 42.0791 3.22006Z" fill="#231F20"/>
<path d="M50.5934 0.621094L49.2598 2.89275L47.9117 0.621094H46.4902L48.6053 4.13361V6.37107H49.8704V4.16292L52.0001 0.621094H50.5934Z" fill="#231F20"/>
</svg>
