<svg width="100%" height="100%" style="overflow:visible;" preserveAspectRatio="none" viewBox="0 0 54.08 6.43" fill="none" xmlns="http://www.w3.org/2000/svg">
<path d="M2.82334 0.484375C1.05509 0.484375 0 1.81317 0 3.51813C0 5.22309 1.05509 6.50303 2.82334 6.50303C3.37042 6.50303 3.83935 6.3809 4.21547 6.16595L5.02632 6.90851L5.61248 6.28808L4.89444 5.63834C5.37802 5.09119 5.64179 4.3584 5.64179 3.52302C5.64179 1.81806 4.5867 0.489261 2.81845 0.489261L2.82334 0.484375ZM4.02985 4.83715L3.38019 4.24115L2.79403 4.87135L3.33134 5.36476C3.24342 5.4527 3.00896 5.44781 2.82334 5.44781C1.6901 5.44781 1.26024 4.48053 1.26024 3.52302C1.26024 2.51665 1.68521 1.54937 2.82334 1.54937C3.96147 1.54937 4.38643 2.51665 4.38643 3.52302C4.38643 4.12879 4.24966 4.55381 4.03474 4.84204L4.02985 4.83715Z" fill="#231F20"/>
<path d="M12.2992 4.19712C12.2992 5.05692 12.011 5.44286 11.1074 5.44286C10.0865 5.44286 9.92529 4.82243 9.92529 4.19712V0.621094H8.66016V4.19712C8.66016 5.76529 9.55405 6.50785 11.1074 6.50785C12.6607 6.50785 13.5644 5.75063 13.5644 4.19712V0.621094H12.2992V4.19712Z" fill="#231F20"/>
<path d="M18.3963 0.621094L16.2129 6.36618H17.4927L17.9421 5.08624H20.0913L20.5261 6.36618H21.84L19.6908 0.621094H18.3963ZM18.2742 4.14826L19.0216 2.03782H19.0362L19.7592 4.14826H18.2693H18.2742Z" fill="#231F20"/>
<path d="M28.184 4.47558H28.1694L25.771 0.621094H24.5156V6.37107H25.6977V2.52147H25.7124L28.1059 6.37107H29.3661V0.621094H28.184V4.47558Z" fill="#231F20"/>
<path d="M32.2051 1.68608H33.9245V6.37107H35.1896V1.68608H36.9139V0.621094H32.2051V1.68608Z" fill="#231F20"/>
<path d="M43.3617 4.19712C43.3617 5.05692 43.0735 5.44286 42.1699 5.44286C41.149 5.44286 40.9878 4.82243 40.9878 4.19712V0.621094H39.7227V4.19712C39.7227 5.76529 40.6166 6.50785 42.1699 6.50785C43.7232 6.50785 44.6269 5.75063 44.6269 4.19712V0.621094H43.3617V4.19712Z" fill="#231F20"/>
<path d="M51.0256 4.57328H51.011L49.6677 0.621094H47.8848V6.37107H49.0717V2.33583H49.0864L50.4932 6.37107H51.4701L52.8769 2.29674H52.8916V6.37107H54.0785V0.621094H52.2956L51.0256 4.57328Z" fill="#231F20"/>
</svg>
