<svg width="100%" height="100%" style="overflow:visible;" preserveAspectRatio="none" viewBox="0 0 227 25.9" fill="none" xmlns="http://www.w3.org/2000/svg">
<path d="M5.55129 2.73438H0.5V25.1168H15.1118V20.8658H5.55129V2.73438Z" fill="#231F20"/>
<path d="M32.6316 15.9063C32.6316 17.5451 32.1881 18.8451 31.3072 19.7938C30.4201 20.7426 29.2559 21.217 27.8083 21.217C26.3606 21.217 25.1101 20.7426 24.1984 19.7938C23.2806 18.8451 22.8247 17.5513 22.8247 15.9063V2.73438H17.7734V15.9063C17.7734 17.847 18.18 19.5351 18.987 20.9767C19.794 22.4184 20.9521 23.5273 22.4551 24.3036C23.9582 25.0799 25.7323 25.468 27.7775 25.468C29.8226 25.468 31.5844 25.0799 33.069 24.3036C34.5474 23.5273 35.6932 22.4184 36.4878 20.9767C37.2887 19.5351 37.6891 17.847 37.6891 15.9063V2.73438H32.6378V15.9063H32.6316Z" fill="#231F20"/>
<path d="M62.4278 2.73438H56.5449L47.2739 13.3804V2.73438H42.2227V25.1168H47.2739V19.4611L50.5142 15.8878L56.933 25.1168H62.9761L53.9823 12.0558L62.4278 2.73438Z" fill="#231F20"/>
<path d="M70.8364 15.9063H81.6166V11.8463H70.8364V6.79439H82.8302V2.73438H65.7852V25.1168H83.1813V21.0568H70.8364V15.9063Z" fill="#231F20"/>
<path d="M109.239 20.3036C108.217 20.7841 107.194 21.0244 106.171 21.0244C105.21 21.0244 104.323 20.8396 103.504 20.4638C102.685 20.0941 101.958 19.5766 101.33 18.9297C100.701 18.2767 100.215 17.5189 99.8758 16.644C99.537 15.7692 99.3645 14.8327 99.3645 13.8285C99.3645 12.8243 99.537 11.857 99.8758 10.9822C100.215 10.1073 100.701 9.34339 101.33 8.6965C101.958 8.04961 102.685 7.53825 103.504 7.17476C104.323 6.81127 105.217 6.63261 106.171 6.63261C107.219 6.63261 108.26 6.89136 109.307 7.41504C110.348 7.93871 111.247 8.65953 111.993 9.57134L114.931 6.11509C114.186 5.3265 113.336 4.66113 112.387 4.11897C111.438 3.57682 110.428 3.15171 109.35 2.85599C108.272 2.56027 107.194 2.40625 106.104 2.40625C104.397 2.40625 102.827 2.69581 101.385 3.26877C99.9436 3.84173 98.6808 4.65497 97.5966 5.69616C96.5124 6.7435 95.6685 7.9572 95.0709 9.34339C94.4734 10.7296 94.1777 12.2328 94.1777 13.8532C94.1777 15.4735 94.4734 17.0198 95.0709 18.4245C95.6685 19.8292 96.4939 21.0614 97.5473 22.1149C98.6007 23.1684 99.8389 23.994 101.256 24.5792C102.673 25.1645 104.225 25.4602 105.907 25.4602C106.991 25.4602 108.081 25.2939 109.165 24.9674C110.249 24.6347 111.291 24.1726 112.282 23.575C113.274 22.9774 114.161 22.2751 114.95 21.4618L111.974 18.3629C111.161 19.1762 110.249 19.8169 109.227 20.2974L109.239 20.3036Z" fill="#231F20"/>
<path d="M136.541 5.87055C136.196 5.54402 135.82 5.2483 135.432 4.9649L137.976 0.972656H134.489L132.851 3.54174C132.808 3.52326 132.765 3.49861 132.715 3.48013C131.255 2.91333 129.672 2.62993 127.966 2.62993C126.26 2.62993 124.676 2.91333 123.217 3.48013C121.757 4.04693 120.481 4.83553 119.397 5.84591C118.313 6.85629 117.463 8.05766 116.853 9.44386C116.243 10.8301 115.941 12.3333 115.941 13.9536C115.941 15.5739 116.243 17.0772 116.853 18.4634C117.463 19.8496 118.307 21.0571 119.397 22.0921C119.73 22.4063 120.087 22.6959 120.451 22.967L117.956 26.873H121.442L123.013 24.4148C123.081 24.4456 123.149 24.4764 123.217 24.5072C124.676 25.0802 126.26 25.3697 127.966 25.3697C129.672 25.3697 131.255 25.0802 132.715 24.5072C134.175 23.9342 135.45 23.1272 136.535 22.0921C137.619 21.0571 138.469 19.8496 139.079 18.4634C139.689 17.0772 139.99 15.5739 139.99 13.9536C139.99 12.3333 139.689 10.8362 139.079 9.46234C138.469 8.08847 137.625 6.8871 136.535 5.86439L136.541 5.87055ZM121.676 16.7753C121.313 15.9005 121.134 14.964 121.134 13.9598C121.134 12.9556 121.313 12.0314 121.676 11.1751C122.04 10.3249 122.533 9.57323 123.161 8.92018C123.789 8.26713 124.522 7.76194 125.366 7.39845C126.21 7.03495 127.097 6.85629 128.034 6.85629C128.884 6.85629 129.691 7.01647 130.442 7.31219L123.044 18.907C122.471 18.2909 122.009 17.5762 121.67 16.763L121.676 16.7753ZM134.292 16.7753C133.941 17.6501 133.455 18.4141 132.839 19.061C132.223 19.714 131.502 20.2192 130.683 20.5827C129.863 20.9462 128.982 21.1249 128.046 21.1249C127.11 21.1249 126.272 20.9524 125.465 20.6074L132.888 8.97563C133.485 9.61636 133.954 10.3495 134.299 11.1812C134.65 12.0314 134.828 12.9617 134.828 13.9659C134.828 14.9702 134.65 15.9066 134.299 16.7815L134.292 16.7753Z" fill="#231F20"/>
<path d="M159.419 4.76747C157.854 3.41207 155.649 2.73438 152.815 2.73438H143.322V25.1168H148.374V18.6602H152.815C155.649 18.6602 157.854 17.9394 159.419 16.5039C160.983 15.0623 161.766 13.0538 161.766 10.4786C161.766 7.90335 160.983 6.12286 159.419 4.77362V4.76747ZM155.821 13.5898C155.051 14.2429 153.967 14.5633 152.562 14.5633H148.374V6.79439H152.562C153.967 6.79439 155.057 7.11475 155.821 7.75549C156.591 8.39622 156.973 9.35731 156.973 10.6326C156.973 11.9079 156.591 12.9429 155.821 13.5898Z" fill="#231F20"/>
<path d="M181.096 4.76747C179.532 3.41207 177.326 2.73438 174.493 2.73438H165V25.1168H170.051V18.6602H174.493C177.326 18.6602 179.532 17.9394 181.096 16.5039C182.661 15.0623 183.443 13.0538 183.443 10.4786C183.443 7.90335 182.661 6.12286 181.096 4.77362V4.76747ZM177.499 13.5898C176.729 14.2429 175.645 14.5633 174.24 14.5633H170.051V6.79439H174.24C175.645 6.79439 176.735 7.11475 177.499 7.75549C178.269 8.39622 178.651 9.35731 178.651 10.6326C178.651 11.9079 178.269 12.9429 177.499 13.5898Z" fill="#231F20"/>
<path d="M191.727 15.9063H202.501V11.8463H191.727V6.79439H203.715V2.73438H186.67V25.1168H204.066V21.0568H191.727V15.9063Z" fill="#231F20"/>
<path d="M227.5 25.1185L222.676 17.7193C223.379 17.3927 224.007 16.9923 224.555 16.5056C226.157 15.0639 226.951 13.0555 226.951 10.4802C226.951 7.905 226.151 6.12451 224.555 4.77528C222.954 3.41989 220.687 2.74219 217.742 2.74219H208.021V25.1246H213.073V18.6681H217.742C217.89 18.6681 218.032 18.6557 218.173 18.6557L221.771 25.1308H227.494L227.5 25.1185ZM213.079 6.79604H217.748C219.153 6.79604 220.243 7.11641 221.007 7.75714C221.777 8.39787 222.159 9.35897 222.159 10.6343C222.159 11.9096 221.777 12.9446 221.007 13.5915C220.237 14.2445 219.153 14.5649 217.748 14.5649H213.079V6.79604Z" fill="#231F20"/>
</svg>
