<svg width="55" height="7" viewBox="0 0 55 7" fill="none" xmlns="http://www.w3.org/2000/svg">
<path d="M2.82334 0.482513C1.05509 0.482513 0 1.81131 0 3.51627C0 5.22123 1.05509 6.50117 2.82334 6.50117C3.37042 6.50117 3.83935 6.37904 4.21547 6.16409L5.02632 6.90665L5.61248 6.28622L4.89444 5.63648C5.37802 5.08933 5.64179 4.35654 5.64179 3.52116C5.64179 1.81619 4.5867 0.4874 2.81845 0.4874L2.82334 0.482513ZM4.02985 4.83529L3.38019 4.23929L2.79403 4.86949L3.33134 5.3629C3.24342 5.45084 3.00896 5.44595 2.82334 5.44595C1.6901 5.44595 1.26024 4.47867 1.26024 3.52116C1.26024 2.51479 1.68521 1.5475 2.82334 1.5475C3.96147 1.5475 4.38643 2.51479 4.38643 3.52116C4.38643 4.12693 4.24966 4.55195 4.03474 4.84018L4.02985 4.83529Z" fill="#231F20"/>
<path d="M12.2995 4.19532C12.2995 5.05512 12.0113 5.44106 11.1076 5.44106C10.0867 5.44106 9.92553 4.82063 9.92553 4.19532V0.619293H8.6604V4.19532C8.6604 5.76349 9.55429 6.50605 11.1076 6.50605C12.6609 6.50605 13.5646 5.74883 13.5646 4.19532V0.619293H12.2995V4.19532Z" fill="#231F20"/>
<path d="M18.3956 0.619293L16.2122 6.36438H17.4919L17.9413 5.08443H20.0906L20.5253 6.36438H21.8393L19.69 0.619293H18.3956ZM18.2735 4.14646L19.0208 2.03602H19.0355L19.7584 4.14646H18.2686H18.2735Z" fill="#231F20"/>
<path d="M28.1845 4.47378H28.1698L25.7715 0.619293H24.5161V6.36926H25.6982V2.51967H25.7129L28.1063 6.36926H29.3666V0.619293H28.1845V4.47378Z" fill="#231F20"/>
<path d="M32.2046 1.68428H33.924V6.36926H35.1891V1.68428H36.9134V0.619293H32.2046V1.68428Z" fill="#231F20"/>
<path d="M43.3612 4.19532C43.3612 5.05512 43.0731 5.44106 42.1694 5.44106C41.1485 5.44106 40.9873 4.82063 40.9873 4.19532V0.619293H39.7222V4.19532C39.7222 5.76349 40.6161 6.50605 42.1694 6.50605C43.7227 6.50605 44.6264 5.74883 44.6264 4.19532V0.619293H43.3612V4.19532Z" fill="#231F20"/>
<path d="M51.0251 4.57148H51.0105L49.6672 0.619293H47.8843V6.36926H49.0713V2.33403H49.0859L50.4927 6.36926H51.4696L52.8764 2.29494H52.8911V6.36926H54.078V0.619293H52.2951L51.0251 4.57148Z" fill="#231F20"/>
</svg>
