<svg width="100%" height="100%" style="overflow:visible;" preserveAspectRatio="none" viewBox="0 0 68.2 8.1" fill="none" xmlns="http://www.w3.org/2000/svg">
<path d="M4.06054 0.1875C1.83058 0.1875 0.5 1.86326 0.5 4.0134C0.5 6.16355 1.83058 7.7777 4.06054 7.7777C4.75047 7.7777 5.34185 7.62367 5.81617 7.3526L6.83875 8.28905L7.57796 7.50662L6.67243 6.68723C7.28228 5.99721 7.61493 5.07308 7.61493 4.01957C7.61493 1.86942 6.28434 0.193662 4.05438 0.193662L4.06054 0.1875ZM5.58209 5.67684L4.76279 4.92521L4.02358 5.71997L4.70119 6.34221C4.59031 6.45311 4.29463 6.44695 4.06054 6.44695C2.6314 6.44695 2.08931 5.2271 2.08931 4.01957C2.08931 2.75043 2.62524 1.53057 4.06054 1.53057C5.49585 1.53057 6.03178 2.75043 6.03178 4.01957C6.03178 4.78351 5.85929 5.31951 5.58825 5.683L5.58209 5.67684Z" fill="#231F20"/>
<path d="M16.0112 4.86914C16.0112 5.95345 15.6477 6.44016 14.5081 6.44016C13.2206 6.44016 13.0173 5.65773 13.0173 4.86914V0.359375H11.4219V4.86914C11.4219 6.84678 12.5492 7.78323 14.5081 7.78323C16.467 7.78323 17.6066 6.82829 17.6066 4.86914V0.359375H16.0112V4.86914Z" fill="#231F20"/>
<path d="M23.6989 0.359375L20.9453 7.60457H22.5593L23.126 5.99042H25.8364L26.3847 7.60457H28.0418L25.3313 0.359375H23.6989ZM23.5449 4.80753L24.4874 2.14603H24.5059L25.4176 4.80753H23.5387H23.5449Z" fill="#231F20"/>
<path d="M36.0442 5.2203H36.0257L33.0011 0.359375H31.418V7.61073H32.9087V2.75595H32.9272L35.9457 7.61073H37.535V0.359375H36.0442V5.2203Z" fill="#231F20"/>
<path d="M41.1133 1.70245H43.2816V7.61073H44.8771V1.70245H47.0516V0.359375H41.1133V1.70245Z" fill="#231F20"/>
<path d="M55.183 4.86914C55.183 5.95345 54.8196 6.44016 53.68 6.44016C52.3925 6.44016 52.1892 5.65773 52.1892 4.86914V0.359375H50.5938V4.86914C50.5938 6.84678 51.7211 7.78323 53.68 7.78323C55.6389 7.78323 56.7785 6.82829 56.7785 4.86914V0.359375H55.183V4.86914Z" fill="#231F20"/>
<path d="M64.8477 5.34353H64.8292L63.1352 0.359375H60.8867V7.61073H62.3836V2.52184H62.4021L64.1762 7.61073H65.4082L67.1824 2.47256H67.2008V7.61073H68.6977V0.359375H66.4493L64.8477 5.34353Z" fill="#231F20"/>
</svg>
