<svg width="100%" height="100%" style="overflow:visible;" preserveAspectRatio="none" viewBox="0 0 64.53 7.43" fill="none" xmlns="http://www.w3.org/2000/svg">
<path d="M4.17623 5.25337C4.17623 5.77088 4.17621 6.44242 3.33228 6.44242C2.58074 6.44242 2.40826 5.93723 2.40826 5.23489V4.90836H0.966797V5.53677C0.966797 7.12011 2.14337 7.77933 3.35076 7.77933C5.51295 7.77933 5.76553 6.25759 5.76553 5.32114V0.355469H4.17006V5.24721L4.17623 5.25337Z" fill="#231F20"/>
<path d="M11.5134 4.49723H15.0247V3.2589H11.5134V1.70635H15.3389V0.363281H9.91797V7.61463H15.419V6.27156H11.5134V4.49723Z" fill="#231F20"/>
<path d="M25.3364 5.35975H25.3179L24.0797 0.363281H22.589L21.3261 5.29814H21.3077L20.1619 0.363281H18.5664L20.4884 7.61463H22.1023L23.3097 2.67977H23.3282L24.554 7.61463H26.1372L28.0899 0.363281H26.5253L25.3364 5.35975Z" fill="#231F20"/>
<path d="M33.1538 4.49723H36.6712V3.2589H33.1538V1.70635H36.9853V0.363281H31.5645V7.61463H37.0654V6.27156H33.1538V4.49723Z" fill="#231F20"/>
<path d="M42.4802 0.363281H40.8848V7.61463H46.01V6.27156H42.4802V0.363281Z" fill="#231F20"/>
<path d="M54.5292 4.20151V4.18303C55.3423 3.8565 55.675 3.21577 55.675 2.36557C55.675 1.26893 54.8557 0.363281 53.5559 0.363281H49.6504V7.60847H51.2459V4.77447H52.8413C53.6422 4.77447 53.9378 5.10716 54.0487 5.87111C54.1288 6.45023 54.1226 7.15257 54.3013 7.60847H55.8968C55.6011 7.21418 55.6257 6.35165 55.5949 5.89575C55.5456 5.15644 55.3239 4.41098 54.5415 4.20151H54.5292ZM52.9892 3.64087H51.2459V1.60162H52.9892C53.7099 1.60162 54.0857 1.9035 54.0857 2.60584C54.0857 3.30818 53.7099 3.64087 52.9892 3.64087Z" fill="#231F20"/>
<path d="M63.7253 0.363281L62.0436 3.22809L60.3434 0.363281H58.5508L61.2181 4.79295V7.61463H62.8136V4.82992L65.4994 0.363281H63.7253Z" fill="#231F20"/>
</svg>
