<svg width="52" height="7" viewBox="0 0 52 7" fill="none" xmlns="http://www.w3.org/2000/svg">
<path d="M3.37305 4.49821C3.37305 4.90857 3.37304 5.44107 2.70384 5.44107C2.10791 5.44107 1.97114 5.04047 1.97114 4.48355V4.22463H0.828125V4.72293C0.828125 5.97845 1.76109 6.50117 2.71849 6.50117C4.43301 6.50117 4.63329 5.29451 4.63329 4.55195V0.61441H3.36816V4.49332L3.37305 4.49821Z" fill="#231F20"/>
<path d="M9.19066 3.89731H11.9749V2.91537H9.19066V1.68428H12.2241V0.619293H7.92554V6.36926H12.2876V5.30427H9.19066V3.89731Z" fill="#231F20"/>
<path d="M20.1519 4.58125H20.1373L19.1555 0.619293H17.9734L16.972 4.5324H16.9574L16.0488 0.619293H14.7837L16.3077 6.36926H17.5875L18.5449 2.45616H18.5595L19.5316 6.36926H20.787L22.3354 0.619293H21.0947L20.1519 4.58125Z" fill="#231F20"/>
<path d="M26.3506 3.89731H29.1397V2.91537H26.3506V1.68428H29.3888V0.619293H25.0903V6.36926H29.4523V5.30427H26.3506V3.89731Z" fill="#231F20"/>
<path d="M33.7458 0.619293H32.4807V6.36926H36.5447V5.30427H33.7458V0.619293Z" fill="#231F20"/>
<path d="M43.3003 3.66282V3.64817C43.9451 3.38925 44.2088 2.88118 44.2088 2.20701C44.2088 1.33743 43.5592 0.619293 42.5285 0.619293H39.4316V6.36438H40.6968V4.11715H41.9619C42.5969 4.11715 42.8314 4.38096 42.9193 4.98673C42.9828 5.44595 42.9779 6.00287 43.1196 6.36438H44.3847C44.1502 6.05172 44.1698 5.36778 44.1454 5.00627C44.1063 4.42004 43.9304 3.82892 43.3101 3.66282H43.3003ZM42.0791 3.21826H40.6968V1.60123H42.0791C42.6506 1.60123 42.9486 1.84061 42.9486 2.39753C42.9486 2.95445 42.6506 3.21826 42.0791 3.21826Z" fill="#231F20"/>
<path d="M50.5931 0.619293L49.2596 2.89095L47.9114 0.619293H46.49L48.605 4.13181V6.36926H49.8702V4.16112L51.9999 0.619293H50.5931Z" fill="#231F20"/>
</svg>
