<svg width="100%" height="100%" style="overflow:visible;" preserveAspectRatio="none" viewBox="0 0 180 20.54" fill="none" xmlns="http://www.w3.org/2000/svg">
<path d="M4.00543 1.53516H0V19.2834H11.5864V15.9125H4.00543V1.53516Z" fill="#231F20"/>
<path d="M25.4791 11.9799C25.4791 13.2794 25.1274 14.3102 24.4289 15.0625C23.7255 15.8148 22.8023 16.191 21.6544 16.191C20.5065 16.191 19.5149 15.8148 18.792 15.0625C18.0642 14.3102 17.7027 13.2842 17.7027 11.9799V1.53516H13.6973V11.9799C13.6973 13.5187 14.0197 14.8573 14.6595 16.0005C15.2994 17.1436 16.2178 18.023 17.4096 18.6385C18.6015 19.254 20.0083 19.5618 21.63 19.5618C23.2517 19.5618 24.6487 19.254 25.8259 18.6385C26.9982 18.023 27.9068 17.1436 28.5369 16.0005C29.1719 14.8573 29.4894 13.5187 29.4894 11.9799V1.53516H25.484V11.9799H25.4791Z" fill="#231F20"/>
<path d="M49.1057 1.53516H44.4408L37.0894 9.97691V1.53516H33.084V19.2834H37.0894V14.7987L39.6587 11.9652L44.7486 19.2834H49.5404L42.4088 8.92657L49.1057 1.53516Z" fill="#231F20"/>
<path d="M55.773 11.9799H64.3212V8.76048H55.773V4.75455H65.2834V1.53516H51.7676V19.2834H65.5619V16.064H55.773V11.9799Z" fill="#231F20"/>
<path d="M86.2243 15.4652C85.4134 15.8462 84.6025 16.0367 83.7917 16.0367C83.0297 16.0367 82.3263 15.8902 81.6766 15.5922C81.027 15.2991 80.4506 14.8887 79.9523 14.3757C79.4541 13.8579 79.0682 13.257 78.7996 12.5633C78.5309 11.8696 78.3941 11.127 78.3941 10.3307C78.3941 9.53444 78.5309 8.76745 78.7996 8.07374C79.0682 7.38003 79.4541 6.77425 79.9523 6.2613C80.4506 5.74835 81.027 5.34287 81.6766 5.05464C82.3263 4.76641 83.0346 4.62474 83.7917 4.62474C84.6221 4.62474 85.4476 4.82991 86.278 5.24516C87.1035 5.66041 87.8167 6.23199 88.4077 6.95501L90.7377 4.21437C90.1466 3.58905 89.4726 3.06145 88.7203 2.63154C87.9681 2.20164 87.167 1.86455 86.3122 1.63006C85.4574 1.39557 84.6025 1.27344 83.738 1.27344C82.3849 1.27344 81.1393 1.50304 79.9963 1.95737C78.8533 2.4117 77.8519 3.05656 76.9922 3.88217C76.1325 4.71267 75.4633 5.67507 74.9895 6.77426C74.5157 7.87344 74.2812 9.06545 74.2812 10.3503C74.2812 11.6351 74.5157 12.8613 74.9895 13.9752C75.4633 15.089 76.1179 16.066 76.9532 16.9014C77.7884 17.7368 78.7703 18.3914 79.8937 18.8555C81.0172 19.3196 82.2481 19.5541 83.5817 19.5541C84.4414 19.5541 85.3059 19.4222 86.1656 19.1633C87.0253 18.8995 87.8509 18.5331 88.6373 18.0592C89.4237 17.5854 90.1271 17.0284 90.7523 16.3836L88.3931 13.9263C87.7483 14.5712 87.0253 15.0792 86.2145 15.4603L86.2243 15.4652Z" fill="#231F20"/>
<path d="M107.873 4.02051C107.6 3.76159 107.302 3.5271 106.994 3.30238L109.012 0.136719H106.247L104.947 2.17388C104.913 2.15922 104.879 2.13968 104.84 2.12502C103.682 1.67558 102.427 1.45086 101.074 1.45086C99.7209 1.45086 98.4655 1.67558 97.3079 2.12502C96.1502 2.57447 95.1391 3.19979 94.2794 4.00097C93.4197 4.80216 92.7456 5.75479 92.262 6.85397C91.7784 7.95316 91.5391 9.14516 91.5391 10.43C91.5391 11.7148 91.7784 12.9068 92.262 14.006C92.7456 15.1052 93.4148 16.0627 94.2794 16.8834C94.5431 17.1326 94.8264 17.3622 95.1146 17.5772L93.1364 20.6744H95.9011L97.1467 18.7252C97.2004 18.7496 97.2541 18.774 97.3079 18.7985C98.4655 19.2528 99.7209 19.4824 101.074 19.4824C102.427 19.4824 103.682 19.2528 104.84 18.7985C105.998 18.3441 107.009 17.7042 107.869 16.8834C108.728 16.0627 109.402 15.1052 109.886 14.006C110.369 12.9068 110.609 11.7148 110.609 10.43C110.609 9.14516 110.369 7.95804 109.886 6.86863C109.402 5.77921 108.733 4.82658 107.869 4.01563L107.873 4.02051ZM96.0867 12.6674C95.7985 11.9737 95.6568 11.2312 95.6568 10.4349C95.6568 9.63858 95.7985 8.90579 96.0867 8.22673C96.3749 7.55257 96.7657 6.95656 97.2639 6.43872C97.7621 5.92088 98.3434 5.52029 99.0126 5.23206C99.6818 4.94383 100.385 4.80216 101.128 4.80216C101.802 4.80216 102.442 4.92917 103.038 5.16366L97.1711 14.3578C96.7168 13.8692 96.3505 13.3025 96.0818 12.6577L96.0867 12.6674ZM106.09 12.6674C105.812 13.3612 105.426 13.9669 104.938 14.4799C104.449 14.9977 103.878 15.3983 103.228 15.6866C102.578 15.9748 101.88 16.1165 101.137 16.1165C100.395 16.1165 99.7307 15.9797 99.0908 15.7061L104.977 6.48269C105.451 6.99076 105.822 7.5721 106.095 8.23162C106.374 8.90579 106.515 9.64346 106.515 10.4398C106.515 11.2361 106.374 11.9786 106.095 12.6723L106.09 12.6674Z" fill="#231F20"/>
<path d="M126.016 3.1473C124.775 2.07254 123.026 1.53516 120.779 1.53516H113.252V19.2834H117.257V14.1636H120.779C123.026 14.1636 124.775 13.592 126.016 12.4537C127.256 11.3106 127.877 9.71799 127.877 7.67594C127.877 5.6339 127.256 4.22206 126.016 3.15218V3.1473ZM123.163 10.143C122.552 10.6608 121.693 10.9149 120.579 10.9149H117.257V4.75455H120.579C121.693 4.75455 122.557 5.00858 123.163 5.51665C123.774 6.02472 124.076 6.78682 124.076 7.79808C124.076 8.80933 123.774 9.63006 123.163 10.143Z" fill="#231F20"/>
<path d="M143.203 3.1473C141.962 2.07254 140.214 1.53516 137.967 1.53516H130.439V19.2834H134.445V14.1636H137.967C140.214 14.1636 141.962 13.592 143.203 12.4537C144.444 11.3106 145.064 9.71799 145.064 7.67594C145.064 5.6339 144.444 4.22206 143.203 3.15218V3.1473ZM140.35 10.143C139.74 10.6608 138.88 10.9149 137.766 10.9149H134.445V4.75455H137.766C138.88 4.75455 139.745 5.00858 140.35 5.51665C140.961 6.02472 141.264 6.78682 141.264 7.79808C141.264 8.80933 140.961 9.63006 140.35 10.143Z" fill="#231F20"/>
<path d="M151.635 11.9799H160.179V8.76048H151.635V4.75455H161.141V1.53516H147.625V19.2834H161.419V16.064H151.635V11.9799Z" fill="#231F20"/>
<path d="M180 19.2824L176.175 13.4152C176.732 13.1562 177.23 12.8387 177.665 12.4528C178.935 11.3096 179.565 9.71701 179.565 7.67497C179.565 5.63292 178.93 4.22108 177.665 3.15121C176.395 2.07644 174.598 1.53906 172.263 1.53906H164.555V19.2873H168.56V14.1675H172.263C172.38 14.1675 172.492 14.1577 172.605 14.1577L175.457 19.2922H179.995L180 19.2824ZM168.565 4.75358H172.268C173.381 4.75358 174.246 5.00761 174.852 5.51568C175.462 6.02375 175.765 6.78585 175.765 7.7971C175.765 8.80835 175.462 9.62908 174.852 10.142C174.241 10.6599 173.381 10.9139 172.268 10.9139H168.565V4.75358Z" fill="#231F20"/>
</svg>
