<svg width="100%" height="100%" style="overflow:visible;" preserveAspectRatio="none" viewBox="0 0 24 24" fill="none" xmlns="http://www.w3.org/2000/svg">
<path d="M12 21.4984L10.55 20.1984C8.86667 18.6818 7.475 17.3734 6.375 16.2734C5.275 15.1734 4.4 14.1859 3.75 13.3109C3.1 12.4359 2.64583 11.6318 2.3875 10.8984C2.12917 10.1651 2 9.4151 2 8.64844C2 7.08177 2.525 5.77344 3.575 4.72344C4.625 3.67344 5.93333 3.14844 7.5 3.14844C8.36667 3.14844 9.19167 3.33177 9.975 3.69844C10.7583 4.0651 11.4333 4.58177 12 5.24844C12.5667 4.58177 13.2417 4.0651 14.025 3.69844C14.8083 3.33177 15.6333 3.14844 16.5 3.14844C18.0667 3.14844 19.375 3.67344 20.425 4.72344C21.475 5.77344 22 7.08177 22 8.64844C22 9.4151 21.8708 10.1651 21.6125 10.8984C21.3542 11.6318 20.9 12.4359 20.25 13.3109C19.6 14.1859 18.725 15.1734 17.625 16.2734C16.525 17.3734 15.1333 18.6818 13.45 20.1984L12 21.4984ZM12 18.7984C13.6 17.3651 14.9167 16.1359 15.95 15.1109C16.9833 14.0859 17.8 13.1943 18.4 12.4359C19 11.6776 19.4167 11.0026 19.65 10.4109C19.8833 9.81927 20 9.23177 20 8.64844C20 7.64844 19.6667 6.8151 19 6.14844C18.3333 5.48177 17.5 5.14844 16.5 5.14844C15.7167 5.14844 14.9917 5.36927 14.325 5.81094C13.6583 6.2526 13.2 6.8151 12.95 7.49844H11.05C10.8 6.8151 10.3417 6.2526 9.675 5.81094C9.00833 5.36927 8.28333 5.14844 7.5 5.14844C6.5 5.14844 5.66667 5.48177 5 6.14844C4.33333 6.8151 4 7.64844 4 8.64844C4 9.23177 4.11667 9.81927 4.35 10.4109C4.58333 11.0026 5 11.6776 5.6 12.4359C6.2 13.1943 7.01667 14.0859 8.05 15.1109C9.08333 16.1359 10.4 17.3651 12 18.7984Z" fill="#231F20"/>
</svg>
