<svg width="100%" height="100%" style="overflow:visible;" preserveAspectRatio="none" viewBox="0 0 152 91.27" fill="none" xmlns="http://www.w3.org/2000/svg">
<g clip-path="url(#clip0_9228_1200)">
<path fill-rule="evenodd" clip-rule="evenodd" d="M90.8326 47.4029C92.1056 46.1403 92.7438 44.4418 92.7438 42.3523C92.7438 40.1598 92.109 38.4305 90.8635 37.1815C89.5905 35.936 87.772 35.3047 85.4011 35.3047H78.0756V55.7887H81.493V49.3106H85.6379C87.8132 49.3106 89.5597 48.6793 90.8326 47.4029ZM85.6962 38.626C88.0774 38.626 89.2783 39.8716 89.2783 42.3523C89.2783 43.5086 88.9523 44.411 88.3176 45.056C87.6828 45.7045 86.777 46.0167 85.6379 46.0167H81.4793V38.6226H85.6996L85.6962 38.626ZM58.3877 35.3493H54.9668V55.8333H58.3877V35.3493ZM129.611 56.1661C130.202 56.1661 130.782 56.0906 131.327 55.9568H131.344V53.1295C131.059 53.1707 130.771 53.1913 130.486 53.1913C129.629 53.1913 129.066 52.9957 128.798 52.6354C128.575 52.3506 128.459 51.7639 128.459 50.8615V42.565H131.403V39.8167H128.459V35.3836H125.141V51.0708C125.141 52.9511 125.377 54.2103 125.865 54.8897C126.472 55.7475 127.714 56.1695 129.608 56.1695L129.611 56.1661ZM71.3711 55.8641H74.7302V45.4643C74.7302 43.7213 74.243 42.366 73.296 41.4053C72.349 40.4274 71.0761 39.8578 69.4771 39.8578C65.7921 39.8578 61.7056 40.7739 61.7056 40.7739V55.8607H65.0647V43.1929C66.2347 42.9356 67.8473 42.6954 68.8527 42.7709C70.4825 42.9081 71.3677 44.0198 71.3677 46.0785V55.8607L71.3711 55.8641ZM108.579 47.7186C108.579 50.1822 107.899 52.1688 106.537 53.6716C105.175 55.1745 103.411 55.9259 101.253 55.9259C99.0948 55.9259 97.3141 55.1745 95.9691 53.6716C94.6069 52.1688 93.9275 50.1856 93.9275 47.722C93.9275 45.2585 94.6069 43.2753 95.9691 41.7861C97.3312 40.3004 99.0914 39.5456 101.253 39.5456C103.415 39.5456 105.206 40.297 106.568 41.7861C107.899 43.289 108.579 45.2585 108.579 47.722V47.7186ZM105.116 47.7323C105.116 46.1849 104.763 44.9668 104.067 44.0644C103.356 43.162 102.423 42.7125 101.253 42.7125C100.083 42.7125 99.1497 43.1655 98.4429 44.0781C97.7327 44.9943 97.393 46.2123 97.393 47.7323C97.393 49.2523 97.7464 50.4978 98.4429 51.4002C99.1532 52.3026 100.086 52.7521 101.253 52.7521C102.42 52.7521 103.356 52.2992 104.067 51.4002C104.763 50.4978 105.116 49.2798 105.116 47.7323ZM121.384 54.3785C122.567 53.3869 123.161 52.1105 123.161 50.563C123.161 48.1578 121.696 46.6858 118.748 46.13C117.506 45.9035 116.247 45.6771 114.974 45.4815C114.072 45.2413 113.629 44.7918 113.629 44.1433C113.629 43.0179 114.607 42.4621 116.573 42.4621C118.11 42.4621 119.49 43.0042 120.687 44.085L122.684 41.9508C121.027 40.3862 119.03 39.6074 116.676 39.6074C114.737 39.6074 113.183 40.074 112.013 41.021C110.843 41.9646 110.267 43.1552 110.267 44.5516C110.267 45.9481 110.74 46.9706 111.701 47.6637C112.531 48.2333 113.89 48.6553 115.818 48.9401C117.417 49.194 118.395 49.3896 118.762 49.5268C119.397 49.767 119.709 50.2165 119.709 50.865C119.709 51.4208 119.428 51.9012 118.879 52.2786C118.33 52.656 117.592 52.8482 116.645 52.8482C114.957 52.8482 113.475 52.2168 112.202 50.9542L109.656 53.1192C111.313 54.9549 113.653 55.8676 116.686 55.8676C118.625 55.8676 120.193 55.3735 121.377 54.3819L121.384 54.3785Z" fill="#FEFEFE"/>
<path fill-rule="evenodd" clip-rule="evenodd" d="M32.7228 45.7662C32.7228 45.7662 30.0397 46.8058 26.7286 46.8058C23.4175 46.8058 20.7344 45.7662 20.7344 45.7662C20.7344 45.7662 23.4175 44.7266 26.7286 44.7266C30.0397 44.7266 32.7228 45.7662 32.7228 45.7662Z" fill="#FFCC05"/>
<path fill-rule="evenodd" clip-rule="evenodd" d="M41.0092 30.4843C41.0092 30.4843 38.6314 28.8785 36.7785 26.185C34.9292 23.4882 34.3047 20.7227 34.3047 20.7227C34.3047 20.7227 36.6825 22.325 38.5353 25.0219C40.3881 27.7188 41.0092 30.4843 41.0092 30.4843Z" fill="#FFCC05"/>
<path fill-rule="evenodd" clip-rule="evenodd" d="M34.9386 37.0784C34.9386 37.0784 32.0736 36.7593 29.1503 35.2324C26.2269 33.7055 24.3535 31.5508 24.3535 31.5508C24.3535 31.5508 27.2185 31.8699 30.1419 33.3967C33.0652 34.9236 34.9386 37.0784 34.9386 37.0784Z" fill="#FFCC05"/>
<path fill-rule="evenodd" clip-rule="evenodd" d="M41.0092 60.9883C41.0092 60.9883 38.6314 62.5941 36.7785 65.2875C34.9292 67.981 34.3047 70.7499 34.3047 70.7499C34.3047 70.7499 36.6825 69.1476 38.5353 66.4507C40.3881 63.7572 41.0092 60.9883 41.0092 60.9883Z" fill="#FFCC05"/>
<path fill-rule="evenodd" clip-rule="evenodd" d="M34.9386 54.3984C34.9386 54.3984 32.0736 54.7175 29.1503 56.2444C26.2269 57.7713 24.3535 59.926 24.3535 59.926C24.3535 59.926 27.2185 59.6069 30.1419 58.0801C33.0652 56.5532 34.9386 54.3984 34.9386 54.3984Z" fill="#FFCC05"/>
<path fill-rule="evenodd" clip-rule="evenodd" d="M41.8984 50.7713C44.0566 56.2989 47.5255 60.2619 53.7222 61.202C53.0153 61.2981 52.2982 61.3564 51.564 61.3599C42.7836 61.3976 35.6297 54.4392 35.5919 45.8168C35.5542 37.1943 42.6395 30.1707 51.4198 30.133C52.2022 30.1295 52.9707 30.1844 53.7256 30.2874C46.6265 31.1726 41.8915 36.683 40.9548 43.6963C40.6563 47.9715 45.6349 49.416 45.6349 49.416C45.6349 49.416 43.5968 50.7473 41.8984 50.7748V50.7713Z" fill="#FFCC05"/>
</g>
<defs>
<clipPath id="clip0_9228_1200">
<rect width="152" height="91.2686" fill="white" transform="translate(0 0.0273438)"/>
</clipPath>
</defs>
</svg>
