<svg width="100%" height="100%" style="overflow:visible;" preserveAspectRatio="none" viewBox="0 0 152 91.27" fill="none" xmlns="http://www.w3.org/2000/svg">
<g clip-path="url(#clip0_9142_1443)">
<path fill-rule="evenodd" clip-rule="evenodd" d="M90.8326 47.985C92.1056 46.7223 92.7438 45.0239 92.7438 42.9343C92.7438 40.7418 92.109 39.0125 90.8635 37.7636C89.5905 36.5181 87.772 35.8867 85.4011 35.8867H78.0756V56.3707H81.493V49.8927H85.6379C87.8132 49.8927 89.5597 49.2613 90.8326 47.985ZM85.6962 39.2081C88.0774 39.2081 89.2783 40.4536 89.2783 42.9343C89.2783 44.0906 88.9523 44.993 88.3176 45.6381C87.6828 46.2865 86.777 46.5988 85.6379 46.5988H81.4793V39.2046H85.6996L85.6962 39.2081ZM58.3877 35.9313H54.9668V56.4153H58.3877V35.9313ZM129.611 56.7481C130.202 56.7481 130.782 56.6726 131.327 56.5388H131.344V53.7116C131.059 53.7527 130.771 53.7733 130.486 53.7733C129.629 53.7733 129.066 53.5777 128.798 53.2175C128.575 52.9327 128.459 52.346 128.459 51.4436V43.147H131.403V40.3987H128.459V35.9656H125.141V51.6529C125.141 53.5331 125.377 54.7924 125.865 55.4717C126.472 56.3295 127.714 56.7516 129.608 56.7516L129.611 56.7481ZM71.3711 56.4462H74.7302V46.0464C74.7302 44.3033 74.243 42.948 73.296 41.9873C72.349 41.0094 71.0761 40.4399 69.4771 40.4399C65.7921 40.4399 61.7056 41.356 61.7056 41.356V56.4427H65.0647V43.7749C66.2347 43.5176 67.8473 43.2774 68.8527 43.3529C70.4825 43.4902 71.3677 44.6018 71.3677 46.6605V56.4427L71.3711 56.4462ZM108.579 48.3006C108.579 50.7642 107.899 52.7508 106.537 54.2537C105.175 55.7565 103.411 56.5079 101.253 56.5079C99.0948 56.5079 97.3141 55.7565 95.9691 54.2537C94.6069 52.7508 93.9275 50.7676 93.9275 48.3041C93.9275 45.8405 94.6069 43.8573 95.9691 42.3682C97.3312 40.8825 99.0914 40.1276 101.253 40.1276C103.415 40.1276 105.206 40.879 106.568 42.3682C107.899 43.871 108.579 45.8405 108.579 48.3041V48.3006ZM105.116 48.3143C105.116 46.7669 104.763 45.5488 104.067 44.6465C103.356 43.7441 102.423 43.2946 101.253 43.2946C100.083 43.2946 99.1497 43.7475 98.4429 44.6602C97.7327 45.5763 97.393 46.7943 97.393 48.3143C97.393 49.8343 97.7464 51.0799 98.4429 51.9822C99.1532 52.8846 100.086 53.3341 101.253 53.3341C102.42 53.3341 103.356 52.8812 104.067 51.9822C104.763 51.0799 105.116 49.8618 105.116 48.3143ZM121.384 54.9605C122.567 53.9689 123.161 52.6925 123.161 51.145C123.161 48.7398 121.696 47.2678 118.748 46.712C117.506 46.4855 116.247 46.2591 114.974 46.0635C114.072 45.8233 113.629 45.3739 113.629 44.7254C113.629 43.5999 114.607 43.0441 116.573 43.0441C118.11 43.0441 119.49 43.5862 120.687 44.667L122.684 42.5329C121.027 40.9683 119.03 40.1894 116.676 40.1894C114.737 40.1894 113.183 40.656 112.013 41.603C110.843 42.5466 110.267 43.7372 110.267 45.1337C110.267 46.5302 110.74 47.5526 111.701 48.2457C112.531 48.8153 113.89 49.2373 115.818 49.5221C117.417 49.776 118.395 49.9716 118.762 50.1088C119.397 50.349 119.709 50.7985 119.709 51.447C119.709 52.0028 119.428 52.4832 118.879 52.8606C118.33 53.238 117.592 53.4302 116.645 53.4302C114.957 53.4302 113.475 52.7989 112.202 51.5362L109.656 53.7013C111.313 55.5369 113.653 56.4496 116.686 56.4496C118.625 56.4496 120.193 55.9555 121.377 54.9639L121.384 54.9605Z" fill="#FEFEFE"/>
<path fill-rule="evenodd" clip-rule="evenodd" d="M32.7228 46.3482C32.7228 46.3482 30.0397 47.3879 26.7286 47.3879C23.4175 47.3879 20.7344 46.3482 20.7344 46.3482C20.7344 46.3482 23.4175 45.3086 26.7286 45.3086C30.0397 45.3086 32.7228 46.3482 32.7228 46.3482Z" fill="#FFCC05"/>
<path fill-rule="evenodd" clip-rule="evenodd" d="M41.0092 31.0663C41.0092 31.0663 38.6314 29.4605 36.7785 26.7671C34.9292 24.0702 34.3047 21.3047 34.3047 21.3047C34.3047 21.3047 36.6825 22.907 38.5353 25.6039C40.3881 28.3008 41.0092 31.0663 41.0092 31.0663Z" fill="#FFCC05"/>
<path fill-rule="evenodd" clip-rule="evenodd" d="M34.9386 37.6604C34.9386 37.6604 32.0736 37.3413 29.1503 35.8144C26.2269 34.2876 24.3535 32.1328 24.3535 32.1328C24.3535 32.1328 27.2185 32.4519 30.1419 33.9788C33.0652 35.5056 34.9386 37.6604 34.9386 37.6604Z" fill="#FFCC05"/>
<path fill-rule="evenodd" clip-rule="evenodd" d="M41.0092 61.5703C41.0092 61.5703 38.6314 63.1761 36.7785 65.8695C34.9292 68.563 34.3047 71.3319 34.3047 71.3319C34.3047 71.3319 36.6825 69.7296 38.5353 67.0327C40.3881 64.3393 41.0092 61.5703 41.0092 61.5703Z" fill="#FFCC05"/>
<path fill-rule="evenodd" clip-rule="evenodd" d="M34.9386 54.9805C34.9386 54.9805 32.0736 55.2996 29.1503 56.8264C26.2269 58.3533 24.3535 60.5081 24.3535 60.5081C24.3535 60.5081 27.2185 60.189 30.1419 58.6621C33.0652 57.1352 34.9386 54.9805 34.9386 54.9805Z" fill="#FFCC05"/>
<path fill-rule="evenodd" clip-rule="evenodd" d="M41.8984 51.3534C44.0566 56.881 47.5255 60.8439 53.7222 61.7841C53.0153 61.8801 52.2982 61.9385 51.564 61.9419C42.7836 61.9796 35.6297 55.0213 35.5919 46.3988C35.5542 37.7763 42.6395 30.7527 51.4198 30.715C52.2022 30.7116 52.9707 30.7665 53.7256 30.8694C46.6265 31.7546 41.8915 37.2651 40.9548 44.2783C40.6563 48.5536 45.6349 49.9981 45.6349 49.9981C45.6349 49.9981 43.5968 51.3294 41.8984 51.3568V51.3534Z" fill="#FFCC05"/>
</g>
<defs>
<clipPath id="clip0_9142_1443">
<rect width="152" height="91.2686" fill="white" transform="translate(0 0.609375)"/>
</clipPath>
</defs>
</svg>
