<svg width="100%" height="100%" style="overflow:visible;" preserveAspectRatio="none" viewBox="0 0 63 63" fill="none" xmlns="http://www.w3.org/2000/svg">
<path d="M49.8697 13.547C49.8697 25.7932 37.6234 25.7932 37.6234 25.7932H25.3772C0.884766 25.7932 0.884766 50.2857 0.884766 50.2857V62.5319H25.3772C49.8697 62.5319 49.8697 38.0395 49.8697 38.0395V35.3407C62.1113 28.9727 62.1159 13.547 62.1159 13.547V1.30078H25.3772C14.6323 1.30078 8.60442 6.01331 5.2163 11.3019C1.2068 17.5701 5.68801 25.7932 13.131 25.7932C13.131 13.547 25.3772 13.547 25.3772 13.547H49.8697ZM25.3772 50.2857H13.131C13.131 38.0395 25.3772 38.0395 25.3772 38.0395H37.6234C37.6234 50.2857 25.3772 50.2857 25.3772 50.2857Z" fill="#231F20"/>
</svg>
