<svg width="100%" height="100%" style="overflow:visible;" preserveAspectRatio="none" viewBox="0 0 63 63" fill="none" xmlns="http://www.w3.org/2000/svg">
<path d="M37.6234 1.30078H25.3772C0.884766 1.30078 0.884766 25.7932 0.884766 25.7932C0.884766 36.5382 5.59729 42.566 10.8858 45.9541C17.1541 49.9636 25.3772 45.4824 25.3772 38.0395C13.131 38.0395 13.131 25.7932 13.131 25.7932C13.131 13.547 25.3772 13.547 25.3772 13.547H37.6234C49.8697 13.547 49.8697 25.7932 49.8697 25.7932V38.0395C49.8697 50.2857 37.6234 50.2857 37.6234 50.2857H29.4593C29.4593 50.2857 17.2131 50.2857 17.2131 62.5319H37.6234C62.1159 62.5319 62.1159 38.0395 62.1159 38.0395V25.7932C62.1159 1.30078 37.6234 1.30078 37.6234 1.30078Z" fill="#231F20"/>
<path d="M31.5001 33.9572C34.8818 33.9572 37.6232 31.2157 37.6232 27.834C37.6232 24.4523 34.8818 21.7109 31.5001 21.7109C28.1184 21.7109 25.377 24.4523 25.377 27.834C25.377 31.2157 28.1184 33.9572 31.5001 33.9572Z" fill="#231F20"/>
</svg>
