<svg width="63" height="63" viewBox="0 0 63 63" fill="none" xmlns="http://www.w3.org/2000/svg">
<g clip-path="url(#clip0_79_25)">
<path d="M37.6231 0.884445H25.3769C0.88446 0.884445 0.88446 25.3769 0.88446 25.3769C0.88446 36.1218 5.59699 42.1497 10.8855 45.5378C17.1538 49.5473 25.3769 45.0661 25.3769 37.6231C13.1307 37.6231 13.1307 25.3769 13.1307 25.3769C13.1307 13.1307 25.3769 13.1307 25.3769 13.1307H37.6231C49.8694 13.1307 49.8694 25.3769 49.8694 25.3769V37.6231C49.8694 49.8693 37.6231 49.8693 37.6231 49.8693H29.459C29.459 49.8693 17.2128 49.8693 17.2128 62.1156H37.6231C62.1156 62.1156 62.1156 37.6231 62.1156 37.6231V25.3769C62.1156 0.884445 37.6231 0.884445 37.6231 0.884445Z" fill="#231F20"/>
<path d="M31.5 33.541C34.8817 33.541 37.6231 30.7996 37.6231 27.4179C37.6231 24.0362 34.8817 21.2948 31.5 21.2948C28.1183 21.2948 25.3769 24.0362 25.3769 27.4179C25.3769 30.7996 28.1183 33.541 31.5 33.541Z" fill="#231F20"/>
</g>
<defs>
<clipPath id="clip0_79_25">
<rect width="63" height="63" fill="white"/>
</clipPath>
</defs>
</svg>
