<svg width="100%" height="100%" style="overflow:visible;" preserveAspectRatio="none" viewBox="0 0 63 63" fill="none" xmlns="http://www.w3.org/2000/svg">
<g clip-path="url(#clip0_9142_343)">
<path d="M49.8697 13.129C49.8697 25.3753 37.6234 25.3753 37.6234 25.3753H25.3772C0.884766 25.3753 0.884766 49.8677 0.884766 49.8677V62.1139H25.3772C49.8697 62.1139 49.8697 37.6215 49.8697 37.6215V34.9228C62.1113 28.5547 62.1159 13.129 62.1159 13.129V0.882812H25.3772C14.6323 0.882812 8.60442 5.59534 5.2163 10.8839C1.2068 17.1521 5.68801 25.3753 13.131 25.3753C13.131 13.129 25.3772 13.129 25.3772 13.129H49.8697ZM25.3772 49.8677H13.131C13.131 37.6215 25.3772 37.6215 25.3772 37.6215H37.6234C37.6234 49.8677 25.3772 49.8677 25.3772 49.8677Z" fill="#231F20"/>
</g>
<defs>
<clipPath id="clip0_9142_343">
<rect width="63" height="63" fill="white"/>
</clipPath>
</defs>
</svg>
