<svg width="100%" height="100%" style="overflow:visible;" preserveAspectRatio="none" viewBox="0 0 63 63" fill="none" xmlns="http://www.w3.org/2000/svg">
<g clip-path="url(#clip0_9142_352)">
<path d="M37.6234 0.882812H25.3772C0.884766 0.882812 0.884766 25.3753 0.884766 25.3753C0.884766 36.1202 5.59729 42.1481 10.8858 45.5362C17.1541 49.5457 25.3772 45.0645 25.3772 37.6215C13.131 37.6215 13.131 25.3753 13.131 25.3753C13.131 13.129 25.3772 13.129 25.3772 13.129H37.6234C49.8697 13.129 49.8697 25.3753 49.8697 25.3753V37.6215C49.8697 49.8677 37.6234 49.8677 37.6234 49.8677H29.4593C29.4593 49.8677 17.2131 49.8677 17.2131 62.1139H37.6234C62.1159 62.1139 62.1159 37.6215 62.1159 37.6215V25.3753C62.1159 0.882812 37.6234 0.882812 37.6234 0.882812Z" fill="#231F20"/>
<path d="M31.5001 33.5392C34.8818 33.5392 37.6232 30.7978 37.6232 27.4161C37.6232 24.0344 34.8818 21.293 31.5001 21.293C28.1184 21.293 25.377 24.0344 25.377 27.4161C25.377 30.7978 28.1184 33.5392 31.5001 33.5392Z" fill="#231F20"/>
</g>
<defs>
<clipPath id="clip0_9142_352">
<rect width="63" height="63" fill="white"/>
</clipPath>
</defs>
</svg>
