<svg width="40" height="40" viewBox="0 0 40 40" fill="none" xmlns="http://www.w3.org/2000/svg">
<path d="M19 29L15.825 26.15C14.625 25.0667 13.5958 24.1 12.7375 23.25C11.8792 22.4 11.1708 21.6 10.6125 20.85C10.0542 20.1 9.64583 19.375 9.3875 18.675C9.12917 17.975 9 17.2417 9 16.475C9 14.9083 9.525 13.6042 10.575 12.5625C11.625 11.5208 12.9333 11 14.5 11C15.3667 11 16.1917 11.1833 16.975 11.55C17.7583 11.9167 18.4333 12.4333 19 13.1C19.5667 12.4333 20.2417 11.9167 21.025 11.55C21.8083 11.1833 22.6333 11 23.5 11C24.85 11 25.9833 11.3792 26.9 12.1375C27.8167 12.8958 28.4417 13.85 28.775 15H26.65C26.35 14.3333 25.9083 13.8333 25.325 13.5C24.7417 13.1667 24.1333 13 23.5 13C22.65 13 21.9167 13.2292 21.3 13.6875C20.6833 14.1458 20.1083 14.75 19.575 15.5H18.425C17.9083 14.75 17.3208 14.1458 16.6625 13.6875C16.0042 13.2292 15.2833 13 14.5 13C13.55 13 12.7292 13.3292 12.0375 13.9875C11.3458 14.6458 11 15.475 11 16.475C11 17.025 11.1167 17.5833 11.35 18.15C11.5833 18.7167 12 19.3708 12.6 20.1125C13.2 20.8542 14.0167 21.7208 15.05 22.7125C16.0833 23.7042 17.4 24.9 19 26.3C19.4333 25.9167 19.9417 25.475 20.525 24.975C21.1083 24.475 21.575 24.0583 21.925 23.725L22.15 23.95L22.6375 24.4375L23.125 24.925L23.35 25.15C22.9833 25.4833 22.5167 25.8958 21.95 26.3875C21.3833 26.8792 20.8833 27.3167 20.45 27.7L19 29ZM26 25V22H23V20H26V17H28V20H31V22H28V25H26Z" fill="#F4F3F3"/>
</svg>
