<svg width="60" height="60" viewBox="0 0 60 60" fill="none" xmlns="http://www.w3.org/2000/svg">
<path d="M30.8659 59.2926C44.6797 59.2926 56.2808 49.8445 59.5731 37.0597H47.6399C44.7823 43.6011 38.2564 48.1786 30.6607 48.1786C27.6127 48.1786 24.7454 47.4409 22.2103 46.1365L44.118 16.9226C45.5785 18.4663 46.7801 20.2641 47.6447 22.2378H59.578C58.1321 16.6197 55.0792 11.6416 50.937 7.8311L56.8035 0H45.2757L43.2485 2.70644C39.4825 0.97217 35.2865 0 30.8708 0C14.5023 0 1.23062 13.2733 1.23062 29.6439C1.23062 37.0744 3.97581 43.8551 8.49413 49.0579L0.820312 59.2877H29.3607L30.8659 59.2926ZM12.1332 29.6487C12.1332 19.4141 20.4274 11.1189 30.6607 11.1189C32.6244 11.1189 34.5099 11.4267 36.283 11.9934L15.2887 39.9909C13.2958 37.0353 12.1332 33.4788 12.1332 29.6487Z" fill="#231F20"/>
</svg>
