<svg width="100%" height="100%" style="overflow:visible;" preserveAspectRatio="none" viewBox="0 0 24 24" fill="none" xmlns="http://www.w3.org/2000/svg">
<path d="M4 20.0273C3.45 20.0273 2.97917 19.8315 2.5875 19.4398C2.19583 19.0482 2 18.5773 2 18.0273V6.02734C2 5.47734 2.19583 5.00651 2.5875 4.61484C2.97917 4.22318 3.45 4.02734 4 4.02734H20C20.55 4.02734 21.0208 4.22318 21.4125 4.61484C21.8042 5.00651 22 5.47734 22 6.02734V18.0273C22 18.5773 21.8042 19.0482 21.4125 19.4398C21.0208 19.8315 20.55 20.0273 20 20.0273H4ZM12 13.0273L4 8.02734V18.0273H20V8.02734L12 13.0273ZM12 11.0273L20 6.02734H4L12 11.0273ZM4 8.02734V6.02734V18.0273V8.02734Z" fill="#231F20"/>
</svg>
