<svg width="100%" height="100%" style="overflow:visible;" preserveAspectRatio="none" viewBox="0 0 24 24" fill="none" xmlns="http://www.w3.org/2000/svg">
<path d="M4 20.1094C3.45 20.1094 2.97917 19.9135 2.5875 19.5219C2.19583 19.1302 2 18.6594 2 18.1094V6.10938C2 5.55938 2.19583 5.08854 2.5875 4.69688C2.97917 4.30521 3.45 4.10938 4 4.10938H20C20.55 4.10938 21.0208 4.30521 21.4125 4.69688C21.8042 5.08854 22 5.55938 22 6.10938V18.1094C22 18.6594 21.8042 19.1302 21.4125 19.5219C21.0208 19.9135 20.55 20.1094 20 20.1094H4ZM12 13.1094L4 8.10938V18.1094H20V8.10938L12 13.1094ZM12 11.1094L20 6.10938H4L12 11.1094ZM4 8.10938V6.10938V18.1094V8.10938Z" fill="#231F20"/>
</svg>
