<svg width="100%" height="100%" style="overflow:visible;" preserveAspectRatio="none" viewBox="0 0 24 24" fill="none" xmlns="http://www.w3.org/2000/svg">
<path d="M4.625 20.1094C4.075 20.1094 3.60417 19.9135 3.2125 19.5219C2.82083 19.1302 2.625 18.6594 2.625 18.1094V6.10938C2.625 5.55938 2.82083 5.08854 3.2125 4.69688C3.60417 4.30521 4.075 4.10938 4.625 4.10938H20.625C21.175 4.10938 21.6458 4.30521 22.0375 4.69688C22.4292 5.08854 22.625 5.55938 22.625 6.10938V18.1094C22.625 18.6594 22.4292 19.1302 22.0375 19.5219C21.6458 19.9135 21.175 20.1094 20.625 20.1094H4.625ZM12.625 13.1094L4.625 8.10938V18.1094H20.625V8.10938L12.625 13.1094ZM12.625 11.1094L20.625 6.10938H4.625L12.625 11.1094ZM4.625 8.10938V6.10938V18.1094V8.10938Z" fill="white"/>
</svg>
