<svg width="100%" height="100%" style="overflow:visible;" preserveAspectRatio="none" viewBox="0 0 41.21 32" fill="none" xmlns="http://www.w3.org/2000/svg">
<g clip-path="url(#clip0_9228_1130)">
<path d="M7.71521 31.9571V29.8334C7.71521 29.021 7.22037 28.4891 6.37088 28.4891C5.94614 28.4891 5.48429 28.6293 5.16676 29.0911C4.91934 28.7035 4.5647 28.4891 4.03274 28.4891C3.6781 28.4891 3.32346 28.5963 3.04305 28.9839V28.5592H2.30078V31.9571H3.04305V30.0808C3.04305 29.4788 3.36058 29.1942 3.85542 29.1942C4.35027 29.1942 4.59769 29.5118 4.59769 30.0808V31.9571H5.33996V30.0808C5.33996 29.4788 5.6946 29.1942 6.15233 29.1942C6.64717 29.1942 6.8946 29.5118 6.8946 30.0808V31.9571H7.71521ZM18.7255 28.5592H17.5214V27.5324H16.7791V28.5592H16.107V29.2313H16.7791V30.7901C16.7791 31.5695 17.0967 32.0272 17.9461 32.0272C18.2637 32.0272 18.6183 31.92 18.8657 31.7798L18.6513 31.1406C18.4369 31.2808 18.1894 31.3179 18.0121 31.3179C17.6575 31.3179 17.5173 31.1035 17.5173 30.753V29.2313H18.7214V28.5592H18.7255ZM25.0266 28.4849C24.6018 28.4849 24.3173 28.6994 24.14 28.9798V28.5551H23.3977V31.953H24.14V30.0396C24.14 29.4746 24.3874 29.153 24.8492 29.153C24.9894 29.153 25.1668 29.1901 25.3111 29.2231L25.5255 28.5138C25.3771 28.4849 25.1668 28.4849 25.0266 28.4849ZM15.5049 28.8396C15.1503 28.5922 14.6554 28.4849 14.1235 28.4849C13.274 28.4849 12.709 28.9097 12.709 29.5819C12.709 30.1468 13.1338 30.4685 13.876 30.5715L14.2307 30.6087C14.6183 30.6788 14.8327 30.786 14.8327 30.9633C14.8327 31.2107 14.5482 31.388 14.0534 31.388C13.5585 31.388 13.1668 31.2107 12.9193 31.0334L12.5647 31.5983C12.9523 31.8829 13.4843 32.0231 14.0162 32.0231C15.0059 32.0231 15.575 31.5612 15.575 30.9262C15.575 30.3241 15.1132 30.0066 14.408 29.8994L14.0534 29.8623C13.7358 29.8252 13.4884 29.7551 13.4884 29.5447C13.4884 29.2973 13.7358 29.1571 14.1276 29.1571C14.5523 29.1571 14.9771 29.3344 15.1915 29.4416L15.5049 28.8396ZM35.2534 28.4849C34.8286 28.4849 34.5441 28.6994 34.3668 28.9798V28.5551H33.6245V31.953H34.3668V30.0396C34.3668 29.4746 34.6142 29.153 35.076 29.153C35.2162 29.153 35.3936 29.1901 35.5379 29.2231L35.7523 28.5221C35.608 28.4849 35.3977 28.4849 35.2534 28.4849ZM25.7688 30.2581C25.7688 31.2849 26.4781 32.0272 27.575 32.0272C28.0699 32.0272 28.4245 31.92 28.7791 31.6396L28.4245 31.0375C28.14 31.252 27.8595 31.3551 27.5379 31.3551C26.9358 31.3551 26.5111 30.9303 26.5111 30.2581C26.5111 29.619 26.9358 29.1942 27.5379 29.1612C27.8554 29.1612 28.14 29.2685 28.4245 29.4788L28.7791 28.8767C28.4245 28.5922 28.0699 28.4891 27.575 28.4891C26.4781 28.4849 25.7688 29.2313 25.7688 30.2581ZM32.6348 30.2581V28.5592H31.8925V28.9839C31.6451 28.6664 31.2905 28.4891 30.8286 28.4891C29.8719 28.4891 29.1297 29.2313 29.1297 30.2581C29.1297 31.2849 29.8719 32.0272 30.8286 32.0272C31.3235 32.0272 31.6781 31.8499 31.8925 31.5324V31.9571H32.6348V30.2581ZM29.909 30.2581C29.909 29.6561 30.2967 29.1612 30.9358 29.1612C31.5379 29.1612 31.9626 29.6231 31.9626 30.2581C31.9626 30.8602 31.5379 31.3551 30.9358 31.3551C30.3008 31.3179 29.909 30.8561 29.909 30.2581ZM21.0266 28.4849C20.0369 28.4849 19.3276 29.1942 19.3276 30.254C19.3276 31.3179 20.0369 32.0231 21.0637 32.0231C21.5585 32.0231 22.0534 31.8829 22.4451 31.5612L22.0905 31.0293C21.8059 31.2437 21.4513 31.3839 21.1008 31.3839C20.6389 31.3839 20.1812 31.1695 20.074 30.5715H22.5853C22.5853 30.4643 22.5853 30.3942 22.5853 30.287C22.6183 29.1942 21.9791 28.4849 21.0266 28.4849ZM21.0266 29.1241C21.4884 29.1241 21.8059 29.4087 21.876 29.9365H20.107C20.1771 29.4788 20.4946 29.1241 21.0266 29.1241ZM39.4678 30.2581V27.2148H38.7255V28.9839C38.4781 28.6664 38.1235 28.4891 37.6616 28.4891C36.7049 28.4891 35.9626 29.2313 35.9626 30.2581C35.9626 31.2849 36.7049 32.0272 37.6616 32.0272C38.1565 32.0272 38.5111 31.8499 38.7255 31.5324V31.9571H39.4678V30.2581ZM36.742 30.2581C36.742 29.6561 37.1297 29.1612 37.7688 29.1612C38.3709 29.1612 38.7956 29.6231 38.7956 30.2581C38.7956 30.8602 38.3709 31.3551 37.7688 31.3551C37.1297 31.3179 36.742 30.8561 36.742 30.2581ZM11.8925 30.2581V28.5592H11.1503V28.9839C10.9028 28.6664 10.5482 28.4891 10.0863 28.4891C9.12965 28.4891 8.38738 29.2313 8.38738 30.2581C8.38738 31.2849 9.12965 32.0272 10.0863 32.0272C10.5812 32.0272 10.9358 31.8499 11.1503 31.5324V31.9571H11.8925V30.2581ZM9.13377 30.2581C9.13377 29.6561 9.5214 29.1612 10.1606 29.1612C10.7626 29.1612 11.1874 29.6231 11.1874 30.2581C11.1874 30.8602 10.7626 31.3551 10.1606 31.3551C9.5214 31.3179 9.13377 30.8561 9.13377 30.2581Z" fill="white"/>
<path d="M26.4083 2.75391H15.2578V22.7869H26.4083V2.75391Z" fill="#FF5A00"/>
<path d="M16.0006 12.7696C16.0006 8.69951 17.914 5.08714 20.8501 2.75312C18.6893 1.05415 15.9635 0.0273438 12.9903 0.0273438C5.94702 0.0273438 0.248047 5.72631 0.248047 12.7696C0.248047 19.8129 5.94702 25.5119 12.9903 25.5119C15.9635 25.5119 18.6893 24.4851 20.8501 22.7861C17.9099 20.4851 16.0006 16.8397 16.0006 12.7696Z" fill="#EB001B"/>
<path d="M41.4517 12.7696C41.4517 19.8129 35.7527 25.5119 28.7094 25.5119C25.7362 25.5119 23.0104 24.4851 20.8496 22.7861C23.8228 20.448 25.6991 16.8397 25.6991 12.7696C25.6991 8.69951 23.7857 5.08714 20.8496 2.75312C23.0063 1.05415 25.7321 0.0273438 28.7053 0.0273438C35.7527 0.0273438 41.4517 5.76343 41.4517 12.7696Z" fill="#F79E1B"/>
</g>
<defs>
<clipPath id="clip0_9228_1130">
<rect width="41.2041" height="32" fill="white" transform="translate(0.248047 0.0273438)"/>
</clipPath>
</defs>
</svg>
