<svg width="100%" height="100%" style="overflow:visible;" preserveAspectRatio="none" viewBox="0 0 41.21 32" fill="none" xmlns="http://www.w3.org/2000/svg">
<g clip-path="url(#clip0_9142_1372)">
<path d="M7.71521 32.5391V30.4154C7.71521 29.6031 7.22037 29.0711 6.37088 29.0711C5.94614 29.0711 5.48429 29.2113 5.16676 29.6732C4.91934 29.2855 4.5647 29.0711 4.03274 29.0711C3.6781 29.0711 3.32346 29.1783 3.04305 29.5659V29.1412H2.30078V32.5391H3.04305V30.6629C3.04305 30.0608 3.36058 29.7763 3.85542 29.7763C4.35027 29.7763 4.59769 30.0938 4.59769 30.6629V32.5391H5.33996V30.6629C5.33996 30.0608 5.6946 29.7763 6.15233 29.7763C6.64717 29.7763 6.8946 30.0938 6.8946 30.6629V32.5391H7.71521ZM18.7255 29.1412H17.5214V28.1144H16.7791V29.1412H16.107V29.8134H16.7791V31.3721C16.7791 32.1515 17.0967 32.6092 17.9461 32.6092C18.2637 32.6092 18.6183 32.502 18.8657 32.3618L18.6513 31.7226C18.4369 31.8629 18.1894 31.9 18.0121 31.9C17.6575 31.9 17.5173 31.6855 17.5173 31.335V29.8134H18.7214V29.1412H18.7255ZM25.0266 29.067C24.6018 29.067 24.3173 29.2814 24.14 29.5618V29.1371H23.3977V32.535H24.14V30.6216C24.14 30.0567 24.3874 29.735 24.8492 29.735C24.9894 29.735 25.1668 29.7721 25.3111 29.8051L25.5255 29.0958C25.3771 29.067 25.1668 29.067 25.0266 29.067ZM15.5049 29.4216C15.1503 29.1742 14.6554 29.067 14.1235 29.067C13.274 29.067 12.709 29.4917 12.709 30.1639C12.709 30.7288 13.1338 31.0505 13.876 31.1536L14.2307 31.1907C14.6183 31.2608 14.8327 31.368 14.8327 31.5453C14.8327 31.7928 14.5482 31.9701 14.0534 31.9701C13.5585 31.9701 13.1668 31.7928 12.9193 31.6154L12.5647 32.1804C12.9523 32.4649 13.4843 32.6051 14.0162 32.6051C15.0059 32.6051 15.575 32.1433 15.575 31.5082C15.575 30.9062 15.1132 30.5886 14.408 30.4814L14.0534 30.4443C13.7358 30.4072 13.4884 30.3371 13.4884 30.1268C13.4884 29.8793 13.7358 29.7391 14.1276 29.7391C14.5523 29.7391 14.9771 29.9165 15.1915 30.0237L15.5049 29.4216ZM35.2534 29.067C34.8286 29.067 34.5441 29.2814 34.3668 29.5618V29.1371H33.6245V32.535H34.3668V30.6216C34.3668 30.0567 34.6142 29.735 35.076 29.735C35.2162 29.735 35.3936 29.7721 35.5379 29.8051L35.7523 29.1041C35.608 29.067 35.3977 29.067 35.2534 29.067ZM25.7688 30.8402C25.7688 31.867 26.4781 32.6092 27.575 32.6092C28.0699 32.6092 28.4245 32.502 28.7791 32.2216L28.4245 31.6196C28.14 31.834 27.8595 31.9371 27.5379 31.9371C26.9358 31.9371 26.5111 31.5123 26.5111 30.8402C26.5111 30.201 26.9358 29.7763 27.5379 29.7433C27.8554 29.7433 28.14 29.8505 28.4245 30.0608L28.7791 29.4587C28.4245 29.1742 28.0699 29.0711 27.575 29.0711C26.4781 29.067 25.7688 29.8134 25.7688 30.8402ZM32.6348 30.8402V29.1412H31.8925V29.5659C31.6451 29.2484 31.2905 29.0711 30.8286 29.0711C29.8719 29.0711 29.1297 29.8134 29.1297 30.8402C29.1297 31.867 29.8719 32.6092 30.8286 32.6092C31.3235 32.6092 31.6781 32.4319 31.8925 32.1144V32.5391H32.6348V30.8402ZM29.909 30.8402C29.909 30.2381 30.2967 29.7433 30.9358 29.7433C31.5379 29.7433 31.9626 30.2051 31.9626 30.8402C31.9626 31.4422 31.5379 31.9371 30.9358 31.9371C30.3008 31.9 29.909 31.4381 29.909 30.8402ZM21.0266 29.067C20.0369 29.067 19.3276 29.7763 19.3276 30.8361C19.3276 31.9 20.0369 32.6051 21.0637 32.6051C21.5585 32.6051 22.0534 32.4649 22.4451 32.1433L22.0905 31.6113C21.8059 31.8257 21.4513 31.9659 21.1008 31.9659C20.6389 31.9659 20.1812 31.7515 20.074 31.1536H22.5853C22.5853 31.0464 22.5853 30.9763 22.5853 30.869C22.6183 29.7763 21.9791 29.067 21.0266 29.067ZM21.0266 29.7062C21.4884 29.7062 21.8059 29.9907 21.876 30.5185H20.107C20.1771 30.0608 20.4946 29.7062 21.0266 29.7062ZM39.4678 30.8402V27.7969H38.7255V29.5659C38.4781 29.2484 38.1235 29.0711 37.6616 29.0711C36.7049 29.0711 35.9626 29.8134 35.9626 30.8402C35.9626 31.867 36.7049 32.6092 37.6616 32.6092C38.1565 32.6092 38.5111 32.4319 38.7255 32.1144V32.5391H39.4678V30.8402ZM36.742 30.8402C36.742 30.2381 37.1297 29.7433 37.7688 29.7433C38.3709 29.7433 38.7956 30.2051 38.7956 30.8402C38.7956 31.4422 38.3709 31.9371 37.7688 31.9371C37.1297 31.9 36.742 31.4381 36.742 30.8402ZM11.8925 30.8402V29.1412H11.1503V29.5659C10.9028 29.2484 10.5482 29.0711 10.0863 29.0711C9.12965 29.0711 8.38738 29.8134 8.38738 30.8402C8.38738 31.867 9.12965 32.6092 10.0863 32.6092C10.5812 32.6092 10.9358 32.4319 11.1503 32.1144V32.5391H11.8925V30.8402ZM9.13377 30.8402C9.13377 30.2381 9.5214 29.7433 10.1606 29.7433C10.7626 29.7433 11.1874 30.2051 11.1874 30.8402C11.1874 31.4422 10.7626 31.9371 10.1606 31.9371C9.5214 31.9 9.13377 31.4381 9.13377 30.8402Z" fill="white"/>
<path d="M26.4083 3.33594H15.2578V23.3689H26.4083V3.33594Z" fill="#FF5A00"/>
<path d="M16.0006 13.3516C16.0006 9.28154 17.914 5.66917 20.8501 3.33515C18.6893 1.63618 15.9635 0.609375 12.9903 0.609375C5.94702 0.609375 0.248047 6.30834 0.248047 13.3516C0.248047 20.3949 5.94702 26.0939 12.9903 26.0939C15.9635 26.0939 18.6893 25.0671 20.8501 23.3681C17.9099 21.0671 16.0006 17.4217 16.0006 13.3516Z" fill="#EB001B"/>
<path d="M41.4517 13.3516C41.4517 20.3949 35.7527 26.0939 28.7094 26.0939C25.7362 26.0939 23.0104 25.0671 20.8496 23.3681C23.8228 21.03 25.6991 17.4217 25.6991 13.3516C25.6991 9.28154 23.7857 5.66917 20.8496 3.33515C23.0063 1.63618 25.7321 0.609375 28.7053 0.609375C35.7527 0.609375 41.4517 6.34546 41.4517 13.3516Z" fill="#F79E1B"/>
</g>
<defs>
<clipPath id="clip0_9142_1372">
<rect width="41.2041" height="32" fill="white" transform="translate(0.248047 0.609375)"/>
</clipPath>
</defs>
</svg>
