<svg width="100%" height="100%" style="overflow:visible;" preserveAspectRatio="none" viewBox="0 0 91.43 32" fill="none" xmlns="http://www.w3.org/2000/svg">
<g clip-path="url(#clip0_9228_1101)">
<path fill-rule="evenodd" clip-rule="evenodd" d="M19.5063 18.3533L26.9539 18.3438L26.6825 20.039L20.4539 25.9866L25.6825 25.9771L25.3777 27.8057L17.6777 27.8104L18.0015 25.9199L23.973 20.2009H19.2063L19.5063 18.3533Z" fill="#D13239"/>
<path fill-rule="evenodd" clip-rule="evenodd" d="M11.3579 15.4564C11.1959 15.2849 10.9626 15.1516 10.7055 15.0468C10.434 14.9421 10.134 14.8659 9.8388 14.8135C9.46737 14.7468 9.10547 14.7183 8.84833 14.7087C8.61023 14.6992 8.45785 14.6992 8.45785 14.6992H5.20071H2.7769L0.605469 27.8135H2.63404L3.43404 22.9564L7.36737 22.9754C7.36737 22.9754 8.90071 23.0373 9.98642 22.4611C11.0721 21.8849 11.3626 20.5754 11.3626 20.5754C11.3626 20.5754 11.4817 20.0897 11.5817 19.4992C11.6912 18.8468 11.8007 18.0659 11.8579 17.6516C11.8817 17.4706 11.8959 17.3564 11.8959 17.3564C11.8959 17.3564 11.9245 17.223 11.9245 17.0135C11.9293 16.723 11.8864 16.2849 11.6579 15.8659C11.5769 15.7183 11.4817 15.5849 11.3579 15.4564ZM9.79595 17.7706C9.79595 17.7945 9.61499 18.8468 9.3769 20.0945C9.28642 20.5706 8.91975 20.8278 8.50071 20.9183C7.80547 21.0659 7.05785 21.0373 7.05785 21.0373L3.77214 21.0278L4.49595 16.6706L7.47214 16.6802C7.47214 16.6802 7.67214 16.6754 7.95309 16.6802C8.27214 16.6849 8.69594 16.6992 9.04356 16.7468C9.34356 16.7849 9.58166 16.8468 9.65785 16.9421C9.75785 17.0659 9.79595 17.2278 9.81023 17.3706C9.82928 17.5802 9.79595 17.7564 9.79595 17.7706Z" fill="#D13239"/>
<path fill-rule="evenodd" clip-rule="evenodd" d="M37.0538 14.6992H39.0061L36.8204 27.8135L34.8633 27.8087L37.0538 14.6992Z" fill="#D13239"/>
<path fill-rule="evenodd" clip-rule="evenodd" d="M47.4727 18.3541L49.3441 18.3494L50.006 25.0065L52.8869 18.3398L55.1965 18.3446L55.8774 25.0303L58.7536 18.3494H60.6965L56.5727 27.8017H54.2679L53.6012 21.1827L50.6917 27.8017L48.425 27.8113L47.4727 18.3541Z" fill="#D13239"/>
<path d="M33.4492 18.4327C32.9016 18.2565 31.954 18.2184 31.1492 18.2279C30.373 18.2374 30.0159 18.2755 29.7254 18.3374C29.7254 18.3374 28.3444 18.5374 27.5587 19.5089C26.773 20.4803 26.5397 22.6041 26.5397 22.6041C26.5397 22.6041 26.073 24.9517 26.2111 25.7374C26.3492 26.5184 26.592 27.247 27.4778 27.5851C28.3635 27.9279 29.1159 27.9089 29.1159 27.9089C29.1159 27.9089 30.6968 28.0327 31.8873 27.7517C33.0778 27.4708 33.7063 26.6327 33.7063 26.6327C33.7063 26.6327 33.9873 26.2708 34.1873 25.8422C34.3873 25.4136 34.4492 25.1136 34.4587 25.0755L34.5825 24.566L32.5587 24.5708C32.5587 24.5708 32.4492 25.9089 31.354 26.0327C30.2635 26.1565 29.6778 26.1089 29.4635 26.0993C29.254 26.0898 28.0825 26.1422 28.1778 25.1612C28.1778 25.147 28.1778 25.1279 28.1825 25.0993C28.2349 23.9851 28.3587 23.6946 28.3587 23.6946L34.7159 23.6755L34.9873 22.1041C35.3016 20.3231 35.0778 18.966 33.4492 18.4327ZM33.0254 21.8803L28.6682 21.8755L28.8397 21.1851C28.8397 21.1851 28.992 20.6422 29.292 20.4136C29.5968 20.1851 29.9825 20.1422 30.3444 20.1089C30.7063 20.0755 31.673 20.0041 32.4587 20.166C32.7206 20.2184 32.9682 20.366 33.0349 20.5851C33.1873 21.0993 33.0254 21.8803 33.0254 21.8803Z" fill="#D13239"/>
<path d="M28.1916 25.1173C28.1916 25.1316 28.1869 25.1459 28.1869 25.1602C28.1821 25.2364 28.1916 25.1126 28.1916 25.1173Z" fill="#D13239"/>
<path d="M40.1805 25.1212C40.1805 25.1355 40.1758 25.1498 40.1758 25.1641C40.1758 25.2403 40.1805 25.1165 40.1805 25.1212Z" fill="#D13239"/>
<path d="M45.4433 18.4366C44.8957 18.2604 43.9481 18.2223 43.1433 18.2318C42.3671 18.2413 42.01 18.2794 41.7195 18.3413C41.7195 18.3413 40.3386 18.5413 39.5529 19.5128C38.7671 20.4842 38.5338 22.608 38.5338 22.608C38.5338 22.608 38.0671 24.9556 38.2052 25.7413C38.3433 26.5223 38.5862 27.2509 39.4719 27.589C40.3576 27.9318 41.11 27.9128 41.11 27.9128C41.11 27.9128 42.691 28.0366 43.8814 27.7556C45.0719 27.4747 45.7005 26.6366 45.7005 26.6366C45.7005 26.6366 45.9814 26.2747 46.1814 25.8461C46.3814 25.4175 46.4433 25.1175 46.4529 25.0794L46.5767 24.5699L44.5529 24.5747C44.5529 24.5747 44.4433 25.9128 43.3481 26.0366C42.2576 26.1604 41.6719 26.1128 41.4576 26.108C41.2481 26.0985 40.0767 26.1461 40.1719 25.1699C40.1719 25.1556 40.1719 25.1366 40.1767 25.108C40.229 23.9937 40.3529 23.7032 40.3529 23.7032L46.71 23.6842L46.9814 22.1128C47.2957 20.3271 47.0719 18.9652 45.4433 18.4366ZM45.0005 21.8794L40.6433 21.8747L40.8148 21.1842C40.8148 21.1842 40.9671 20.6413 41.2671 20.4128C41.5671 20.1842 41.9576 20.1413 42.3195 20.108C42.6814 20.0747 43.6481 20.0032 44.4338 20.1652C44.6957 20.2175 44.9433 20.3652 45.01 20.5842C45.1624 21.0937 45.0005 21.8794 45.0005 21.8794Z" fill="#D13239"/>
<path fill-rule="evenodd" clip-rule="evenodd" d="M62.9439 18.3563L64.1963 25.2706L67.7344 18.3516L69.7249 18.3706L64.6249 28.2516C64.6249 28.2516 63.7011 30.042 63.1296 30.4944C62.5582 30.9468 62.2058 31.1516 61.7392 31.1992C61.2725 31.2468 61.082 31.2801 60.6344 31.1992L60.1582 31.1135L60.4534 29.3468C60.4534 29.3468 61.2439 29.4944 61.7106 29.3087C62.182 29.123 62.5582 28.323 62.5582 28.323L62.7963 27.923L60.9534 18.3516L62.9439 18.3563Z" fill="#D13239"/>
<path fill-rule="evenodd" clip-rule="evenodd" d="M70.4483 19.2939L72.5007 19.2986L72.6245 18.5034C72.6245 18.5034 72.8436 17.0653 73.3341 16.7891C73.4912 16.6986 73.7436 16.6177 74.0341 16.5653C74.5722 16.4701 75.2531 16.4605 75.8103 16.4796C76.6626 16.5082 76.9864 16.5177 77.8531 16.6177C78.7198 16.7177 78.5007 17.5558 78.5007 17.5558L78.3293 18.8082C78.3293 18.8082 78.2531 19.3701 78.0531 19.7177C77.8769 20.0272 77.3912 20.2367 77.1103 20.3272C76.4341 20.5463 74.1198 21.1367 74.1198 21.1367L72.3007 21.6605C72.3007 21.6605 71.1817 21.9844 70.5579 22.6748C69.9293 23.3701 69.6817 24.1558 69.596 24.5653C69.5103 24.9748 69.0293 27.8082 69.0293 27.8082L78.8483 27.8129L79.1769 25.851L71.4102 25.8605L71.5483 25.0605C71.5483 25.0605 71.6388 24.2367 71.9722 23.9653C72.0769 23.8796 72.1293 23.7653 72.7483 23.5463C73.1198 23.4129 74.3864 23.0748 74.3864 23.0748L77.315 22.2748C77.315 22.2748 78.915 21.8653 79.5436 20.9891C80.1722 20.1177 80.415 18.4463 80.415 18.4463C80.415 18.4463 80.5864 16.8224 80.4531 16.3129C80.3245 15.8034 79.8436 15.1939 79.2579 14.932C78.6722 14.6701 78.0626 14.5177 76.296 14.5415C74.5293 14.5653 73.6531 14.6463 72.7579 14.9796C71.8626 15.3082 71.3436 15.9082 71.015 16.7558C70.6579 17.5605 70.4483 19.2939 70.4483 19.2939Z" fill="#B3B2B1"/>
<path fill-rule="evenodd" clip-rule="evenodd" d="M88.9347 22.939L90.3109 14.6914H87.8728L80.2823 22.8438L79.9395 24.9105H86.5775L86.0918 27.8057L88.1299 27.8105L88.6109 24.9105L90.4918 24.9152L90.8299 22.939H88.9347ZM86.9061 22.9438L82.6156 22.939L87.8395 17.3724L86.9061 22.9438Z" fill="#B3B2B1"/>
<path fill-rule="evenodd" clip-rule="evenodd" d="M15.6621 15.7772H21.9145C21.9145 15.7772 23.3145 14.6439 24.3097 13.9153C25.305 13.1867 27.1145 12.0391 27.1145 12.0391L23.5812 10.3867C23.5812 10.3867 20.5954 12.2343 19.3288 13.1058C18.1002 13.9105 15.6621 15.7772 15.6621 15.7772Z" fill="#B3B2B1"/>
<path fill-rule="evenodd" clip-rule="evenodd" d="M29.1012 10.8751L26.2012 8.92269C26.2012 8.92269 28.825 7.43222 32.3155 6.04174C35.8012 4.65126 37.6631 4.07031 37.6631 4.07031L38.2536 6.83698C38.2536 6.83698 34.8964 7.96079 32.9726 8.87031C30.9821 9.71793 29.1012 10.8751 29.1012 10.8751Z" fill="#B3B2B1"/>
<path fill-rule="evenodd" clip-rule="evenodd" d="M40.3954 6.23274L39.8906 3.39941C39.8906 3.39941 43.4716 2.44702 46.7478 1.8375C50.0287 1.22798 54.3763 0.9375 54.3763 0.9375L52.9382 5.31369C52.9382 5.31369 49.1144 4.78988 45.524 5.28036C42.7287 5.61369 40.3954 6.23274 40.3954 6.23274Z" fill="#B3B2B1"/>
<path fill-rule="evenodd" clip-rule="evenodd" d="M55.2148 5.68376L57.6339 0.821851C57.6339 0.821851 62.9339 0.717089 67.5053 1.42661C72.0767 2.13137 76.2577 3.21709 76.1672 3.26471L64.5767 9.32661C64.5767 9.32661 61.8672 7.61233 58.5053 6.55995C56.6006 5.99804 55.2148 5.68376 55.2148 5.68376Z" fill="#B3B2B1"/>
<path fill-rule="evenodd" clip-rule="evenodd" d="M66.6523 10.6469L69.2 12.5802H90.1381C90.1381 12.5802 90.0952 11.904 89.5381 10.9421C89.1904 10.3421 88.5571 9.70402 87.8952 9.04211C87.6523 8.80402 86.6904 8.05164 85.9666 7.58021C84.119 6.38021 83.0857 5.9183 81.1666 5.04688L66.6523 10.6469Z" fill="#B3B2B1"/>
<path d="M17.0207 18.3438C16.235 18.3438 15.4921 18.6533 14.8588 19.0009L14.9683 18.3438H12.8874L11.2207 27.758H13.3064L14.2302 22.5437C14.4207 21.4866 15.2112 20.1771 16.754 20.1771L17.8302 20.1723L18.154 18.3438H17.0207Z" fill="#D13239"/>
</g>
<defs>
<clipPath id="clip0_9228_1101">
<rect width="91.4286" height="32" fill="white" transform="translate(0 0.0273438)"/>
</clipPath>
</defs>
</svg>
