<svg width="100%" height="100%" style="overflow:visible;" preserveAspectRatio="none" viewBox="0 0 91.43 32" fill="none" xmlns="http://www.w3.org/2000/svg">
<path fill-rule="evenodd" clip-rule="evenodd" d="M19.5063 18.9353L26.9539 18.9258L26.6825 20.621L20.4539 26.5686L25.6825 26.5591L25.3777 28.3877L17.6777 28.3924L18.0015 26.502L23.973 20.7829H19.2063L19.5063 18.9353Z" fill="#D13239"/>
<path fill-rule="evenodd" clip-rule="evenodd" d="M11.3579 16.0384C11.1959 15.867 10.9626 15.7336 10.7055 15.6289C10.434 15.5241 10.134 15.4479 9.8388 15.3955C9.46737 15.3289 9.10547 15.3003 8.84833 15.2908C8.61023 15.2812 8.45785 15.2813 8.45785 15.2813H5.20071H2.7769L0.605469 28.3955H2.63404L3.43404 23.5384L7.36737 23.5574C7.36737 23.5574 8.90071 23.6193 9.98642 23.0432C11.0721 22.467 11.3626 21.1574 11.3626 21.1574C11.3626 21.1574 11.4817 20.6717 11.5817 20.0812C11.6912 19.4289 11.8007 18.6479 11.8579 18.2336C11.8817 18.0527 11.8959 17.9384 11.8959 17.9384C11.8959 17.9384 11.9245 17.8051 11.9245 17.5955C11.9293 17.3051 11.8864 16.867 11.6579 16.4479C11.5769 16.3003 11.4817 16.167 11.3579 16.0384ZM9.79595 18.3527C9.79595 18.3765 9.61499 19.4289 9.3769 20.6765C9.28642 21.1527 8.91975 21.4098 8.50071 21.5003C7.80547 21.6479 7.05785 21.6193 7.05785 21.6193L3.77214 21.6098L4.49595 17.2527L7.47214 17.2622C7.47214 17.2622 7.67214 17.2574 7.95309 17.2622C8.27214 17.267 8.69594 17.2812 9.04356 17.3289C9.34356 17.367 9.58166 17.4289 9.65785 17.5241C9.75785 17.6479 9.79595 17.8098 9.81023 17.9527C9.82928 18.1622 9.79595 18.3384 9.79595 18.3527Z" fill="#D13239"/>
<path fill-rule="evenodd" clip-rule="evenodd" d="M37.0538 15.2812H39.0061L36.8204 28.3955L34.8633 28.3908L37.0538 15.2812Z" fill="#D13239"/>
<path fill-rule="evenodd" clip-rule="evenodd" d="M47.4727 18.9362L49.3441 18.9314L50.006 25.5885L52.8869 18.9219L55.1965 18.9266L55.8774 25.6123L58.7536 18.9314H60.6965L56.5727 28.3838H54.2679L53.6012 21.7647L50.6917 28.3838L48.425 28.3933L47.4727 18.9362Z" fill="#D13239"/>
<path d="M33.4492 19.0147C32.9016 18.8385 31.954 18.8004 31.1492 18.8099C30.373 18.8195 30.0159 18.8576 29.7254 18.9195C29.7254 18.9195 28.3444 19.1195 27.5587 20.0909C26.773 21.0623 26.5397 23.1861 26.5397 23.1861C26.5397 23.1861 26.073 25.5338 26.2111 26.3195C26.3492 27.1004 26.592 27.829 27.4778 28.1671C28.3635 28.5099 29.1159 28.4909 29.1159 28.4909C29.1159 28.4909 30.6968 28.6147 31.8873 28.3338C33.0778 28.0528 33.7063 27.2147 33.7063 27.2147C33.7063 27.2147 33.9873 26.8528 34.1873 26.4242C34.3873 25.9957 34.4492 25.6957 34.4587 25.6576L34.5825 25.148L32.5587 25.1528C32.5587 25.1528 32.4492 26.4909 31.354 26.6147C30.2635 26.7385 29.6778 26.6909 29.4635 26.6814C29.254 26.6718 28.0825 26.7242 28.1778 25.7433C28.1778 25.729 28.1778 25.7099 28.1825 25.6814C28.2349 24.5671 28.3587 24.2766 28.3587 24.2766L34.7159 24.2576L34.9873 22.6861C35.3016 20.9052 35.0778 19.548 33.4492 19.0147ZM33.0254 22.4623L28.6682 22.4576L28.8397 21.7671C28.8397 21.7671 28.992 21.2242 29.292 20.9957C29.5968 20.7671 29.9825 20.7242 30.3444 20.6909C30.7063 20.6576 31.673 20.5861 32.4587 20.748C32.7206 20.8004 32.9682 20.948 33.0349 21.1671C33.1873 21.6814 33.0254 22.4623 33.0254 22.4623Z" fill="#D13239"/>
<path d="M28.1916 25.6994C28.1916 25.7136 28.1869 25.7279 28.1869 25.7422C28.1821 25.8184 28.1916 25.6946 28.1916 25.6994Z" fill="#D13239"/>
<path d="M40.1805 25.7033C40.1805 25.7175 40.1758 25.7318 40.1758 25.7461C40.1758 25.8223 40.1805 25.6985 40.1805 25.7033Z" fill="#D13239"/>
<path d="M45.4433 19.0186C44.8957 18.8424 43.9481 18.8043 43.1433 18.8138C42.3671 18.8234 42.01 18.8615 41.7195 18.9234C41.7195 18.9234 40.3386 19.1234 39.5529 20.0948C38.7671 21.0662 38.5338 23.19 38.5338 23.19C38.5338 23.19 38.0671 25.5377 38.2052 26.3234C38.3433 27.1043 38.5862 27.8329 39.4719 28.171C40.3576 28.5138 41.11 28.4948 41.11 28.4948C41.11 28.4948 42.691 28.6186 43.8814 28.3377C45.0719 28.0567 45.7005 27.2186 45.7005 27.2186C45.7005 27.2186 45.9814 26.8567 46.1814 26.4281C46.3814 25.9996 46.4433 25.6996 46.4529 25.6615L46.5767 25.1519L44.5529 25.1567C44.5529 25.1567 44.4433 26.4948 43.3481 26.6186C42.2576 26.7424 41.6719 26.6948 41.4576 26.69C41.2481 26.6805 40.0767 26.7281 40.1719 25.7519C40.1719 25.7377 40.1719 25.7186 40.1767 25.69C40.229 24.5758 40.3529 24.2853 40.3529 24.2853L46.71 24.2662L46.9814 22.6948C47.2957 20.9091 47.0719 19.5472 45.4433 19.0186ZM45.0005 22.4615L40.6433 22.4567L40.8148 21.7662C40.8148 21.7662 40.9671 21.2234 41.2671 20.9948C41.5671 20.7662 41.9576 20.7234 42.3195 20.69C42.6814 20.6567 43.6481 20.5853 44.4338 20.7472C44.6957 20.7996 44.9433 20.9472 45.01 21.1662C45.1624 21.6758 45.0005 22.4615 45.0005 22.4615Z" fill="#D13239"/>
<path fill-rule="evenodd" clip-rule="evenodd" d="M62.9439 18.9384L64.1963 25.8526L67.7344 18.9336L69.7249 18.9526L64.6249 28.8336C64.6249 28.8336 63.7011 30.6241 63.1296 31.0765C62.5582 31.5288 62.2058 31.7336 61.7392 31.7812C61.2725 31.8288 61.082 31.8622 60.6344 31.7812L60.1582 31.6955L60.4534 29.9288C60.4534 29.9288 61.2439 30.0765 61.7106 29.8907C62.182 29.705 62.5582 28.905 62.5582 28.905L62.7963 28.505L60.9534 18.9336L62.9439 18.9384Z" fill="#D13239"/>
<path fill-rule="evenodd" clip-rule="evenodd" d="M70.4483 19.8759L72.5007 19.8807L72.6245 19.0854C72.6245 19.0854 72.8436 17.6473 73.3341 17.3711C73.4912 17.2807 73.7436 17.1997 74.0341 17.1473C74.5722 17.0521 75.2531 17.0426 75.8103 17.0616C76.6626 17.0902 76.9864 17.0997 77.8531 17.1997C78.7198 17.2997 78.5007 18.1378 78.5007 18.1378L78.3293 19.3902C78.3293 19.3902 78.2531 19.9521 78.0531 20.2997C77.8769 20.6092 77.3912 20.8188 77.1103 20.9092C76.4341 21.1283 74.1198 21.7188 74.1198 21.7188L72.3007 22.2426C72.3007 22.2426 71.1817 22.5664 70.5579 23.2569C69.9293 23.9521 69.6817 24.7378 69.596 25.1473C69.5103 25.5569 69.0293 28.3902 69.0293 28.3902L78.8483 28.395L79.1769 26.4331L71.4102 26.4426L71.5483 25.6426C71.5483 25.6426 71.6388 24.8188 71.9722 24.5473C72.0769 24.4616 72.1293 24.3473 72.7483 24.1283C73.1198 23.995 74.3864 23.6569 74.3864 23.6569L77.315 22.8569C77.315 22.8569 78.915 22.4473 79.5436 21.5711C80.1722 20.6997 80.415 19.0283 80.415 19.0283C80.415 19.0283 80.5864 17.4045 80.4531 16.895C80.3245 16.3854 79.8436 15.7759 79.2579 15.514C78.6722 15.2521 78.0626 15.0997 76.296 15.1235C74.5293 15.1473 73.6531 15.2283 72.7579 15.5616C71.8626 15.8902 71.3436 16.4902 71.015 17.3378C70.6579 18.1426 70.4483 19.8759 70.4483 19.8759Z" fill="#B3B2B1"/>
<path fill-rule="evenodd" clip-rule="evenodd" d="M88.9347 23.5211L90.3109 15.2734H87.8728L80.2823 23.4258L79.9395 25.4925H86.5775L86.0918 28.3877L88.1299 28.3925L88.6109 25.4925L90.4918 25.4972L90.8299 23.5211H88.9347ZM86.9061 23.5258L82.6156 23.5211L87.8395 17.9544L86.9061 23.5258Z" fill="#B3B2B1"/>
<path fill-rule="evenodd" clip-rule="evenodd" d="M15.6621 16.3592H21.9145C21.9145 16.3592 23.3145 15.2259 24.3097 14.4973C25.305 13.7688 27.1145 12.6211 27.1145 12.6211L23.5812 10.9688C23.5812 10.9688 20.5954 12.8164 19.3288 13.6878C18.1002 14.4926 15.6621 16.3592 15.6621 16.3592Z" fill="#B3B2B1"/>
<path fill-rule="evenodd" clip-rule="evenodd" d="M29.1012 11.4571L26.2012 9.50472C26.2012 9.50472 28.825 8.01425 32.3155 6.62377C35.8012 5.2333 37.6631 4.65234 37.6631 4.65234L38.2536 7.41901C38.2536 7.41901 34.8964 8.54282 32.9726 9.45234C30.9821 10.3 29.1012 11.4571 29.1012 11.4571Z" fill="#B3B2B1"/>
<path fill-rule="evenodd" clip-rule="evenodd" d="M40.3954 6.81477L39.8906 3.98144C39.8906 3.98144 43.4716 3.02906 46.7478 2.41953C50.0287 1.81001 54.3763 1.51953 54.3763 1.51953L52.9382 5.89572C52.9382 5.89572 49.1144 5.37191 45.524 5.86239C42.7287 6.19572 40.3954 6.81477 40.3954 6.81477Z" fill="#B3B2B1"/>
<path fill-rule="evenodd" clip-rule="evenodd" d="M55.2148 6.26579L57.6339 1.40388C57.6339 1.40388 62.9339 1.29912 67.5053 2.00864C72.0767 2.71341 76.2577 3.79912 76.1672 3.84674L64.5767 9.90864C64.5767 9.90864 61.8672 8.19436 58.5053 7.14198C56.6006 6.58007 55.2148 6.26579 55.2148 6.26579Z" fill="#B3B2B1"/>
<path fill-rule="evenodd" clip-rule="evenodd" d="M66.6523 11.2289L69.2 13.1622H90.1381C90.1381 13.1622 90.0952 12.486 89.5381 11.5241C89.1904 10.9241 88.5571 10.286 87.8952 9.62414C87.6523 9.38605 86.6904 8.63367 85.9666 8.16224C84.119 6.96224 83.0857 6.50033 81.1666 5.62891L66.6523 11.2289Z" fill="#B3B2B1"/>
<path d="M17.0207 18.9258C16.235 18.9258 15.4921 19.2353 14.8588 19.5829L14.9683 18.9258H12.8874L11.2207 28.3401H13.3064L14.2302 23.1258C14.4207 22.0686 15.2112 20.7591 16.754 20.7591L17.8302 20.7544L18.154 18.9258H17.0207Z" fill="#D13239"/>
</svg>
