<svg width="100%" height="100%" style="overflow:visible;" preserveAspectRatio="none" viewBox="0 0 24 24" fill="none" xmlns="http://www.w3.org/2000/svg">
<path d="M6.8 20.6094C6.3 20.6094 5.875 20.4344 5.525 20.0844C5.175 19.7344 5 19.3094 5 18.8094C5 18.4594 5.1 18.1302 5.3 17.8219C5.5 17.5135 5.76667 17.2927 6.1 17.1594L10 15.6094V13.3594C9.1 14.4094 8.05417 15.2135 6.8625 15.7719C5.67083 16.3302 4.38333 16.6094 3 16.6094V14.6094C4.13333 14.6094 5.1625 14.376 6.0875 13.9094C7.0125 13.4427 7.85 12.776 8.6 11.9094L9.95 10.3094C10.15 10.076 10.3833 9.90104 10.65 9.78438C10.9167 9.66771 11.2 9.60938 11.5 9.60938H12.5C12.8 9.60938 13.0833 9.66771 13.35 9.78438C13.6167 9.90104 13.85 10.076 14.05 10.3094L15.4 11.9094C16.15 12.776 16.9875 13.4427 17.9125 13.9094C18.8375 14.376 19.8667 14.6094 21 14.6094V16.6094C19.6167 16.6094 18.3292 16.3302 17.1375 15.7719C15.9458 15.2135 14.9 14.4094 14 13.3594V15.6094L17.9 17.1594C18.2333 17.2927 18.5 17.5135 18.7 17.8219C18.9 18.1302 19 18.4594 19 18.8094C19 19.3094 18.825 19.7344 18.475 20.0844C18.125 20.4344 17.7 20.6094 17.2 20.6094H10V20.1094C10 19.676 10.1417 19.3177 10.425 19.0344C10.7083 18.751 11.0667 18.6094 11.5 18.6094H14.5C14.65 18.6094 14.7708 18.5635 14.8625 18.4719C14.9542 18.3802 15 18.2594 15 18.1094C15 17.9594 14.9542 17.8385 14.8625 17.7469C14.7708 17.6552 14.65 17.6094 14.5 17.6094H11.5C10.8 17.6094 10.2083 17.851 9.725 18.3344C9.24167 18.8177 9 19.4094 9 20.1094V20.6094H6.8ZM12 8.60938C11.45 8.60938 10.9792 8.41354 10.5875 8.02188C10.1958 7.63021 10 7.15937 10 6.60938C10 6.05938 10.1958 5.58854 10.5875 5.19688C10.9792 4.80521 11.45 4.60938 12 4.60938C12.55 4.60938 13.0208 4.80521 13.4125 5.19688C13.8042 5.58854 14 6.05938 14 6.60938C14 7.15937 13.8042 7.63021 13.4125 8.02188C13.0208 8.41354 12.55 8.60938 12 8.60938Z" fill="#F49974"/>
</svg>
