<svg width="100%" height="100%" style="overflow:visible;" preserveAspectRatio="none" viewBox="0 0 24 24" fill="none" xmlns="http://www.w3.org/2000/svg">
<path d="M7.3 20.0273C6.8 20.0273 6.375 19.8523 6.025 19.5023C5.675 19.1523 5.5 18.7273 5.5 18.2273C5.5 17.8773 5.6 17.5482 5.8 17.2398C6 16.9315 6.26667 16.7107 6.6 16.5773L10.5 15.0273V12.7773C9.6 13.8273 8.55417 14.6315 7.3625 15.1898C6.17083 15.7482 4.88333 16.0273 3.5 16.0273V14.0273C4.63333 14.0273 5.6625 13.794 6.5875 13.3273C7.5125 12.8607 8.35 12.194 9.1 11.3273L10.45 9.72734C10.65 9.49401 10.8833 9.31901 11.15 9.20234C11.4167 9.08568 11.7 9.02734 12 9.02734H13C13.3 9.02734 13.5833 9.08568 13.85 9.20234C14.1167 9.31901 14.35 9.49401 14.55 9.72734L15.9 11.3273C16.65 12.194 17.4875 12.8607 18.4125 13.3273C19.3375 13.794 20.3667 14.0273 21.5 14.0273V16.0273C20.1167 16.0273 18.8292 15.7482 17.6375 15.1898C16.4458 14.6315 15.4 13.8273 14.5 12.7773V15.0273L18.4 16.5773C18.7333 16.7107 19 16.9315 19.2 17.2398C19.4 17.5482 19.5 17.8773 19.5 18.2273C19.5 18.7273 19.325 19.1523 18.975 19.5023C18.625 19.8523 18.2 20.0273 17.7 20.0273H10.5V19.5273C10.5 19.094 10.6417 18.7357 10.925 18.4523C11.2083 18.169 11.5667 18.0273 12 18.0273H15C15.15 18.0273 15.2708 17.9815 15.3625 17.8898C15.4542 17.7982 15.5 17.6773 15.5 17.5273C15.5 17.3773 15.4542 17.2565 15.3625 17.1648C15.2708 17.0732 15.15 17.0273 15 17.0273H12C11.3 17.0273 10.7083 17.269 10.225 17.7523C9.74167 18.2357 9.5 18.8273 9.5 19.5273V20.0273H7.3ZM12.5 8.02734C11.95 8.02734 11.4792 7.83151 11.0875 7.43984C10.6958 7.04818 10.5 6.57734 10.5 6.02734C10.5 5.47734 10.6958 5.00651 11.0875 4.61484C11.4792 4.22318 11.95 4.02734 12.5 4.02734C13.05 4.02734 13.5208 4.22318 13.9125 4.61484C14.3042 5.00651 14.5 5.47734 14.5 6.02734C14.5 6.57734 14.3042 7.04818 13.9125 7.43984C13.5208 7.83151 13.05 8.02734 12.5 8.02734Z" fill="#F49974"/>
</svg>
