<svg width="100%" height="100%" style="overflow:visible;" preserveAspectRatio="none" viewBox="0 0 58.74 18" fill="none" xmlns="http://www.w3.org/2000/svg">
<path d="M43.1503 0.764648C41.7853 0.267264 40.3425 0.0176733 38.8897 0.0276303C34.1916 0.0276303 30.8735 2.39431 30.85 5.79165C30.8207 8.28753 33.2079 9.69403 35.0137 10.528C36.8666 11.3854 37.4861 11.9256 37.4803 12.692C37.4685 13.8578 36.0004 14.3863 34.635 14.3863C32.7586 14.3863 31.7339 14.125 30.1571 13.4702L29.5727 13.1971L28.9062 17.1083C30.0484 17.584 32.1068 17.9921 34.2327 18.0273C39.2274 18.0273 42.4926 15.6753 42.5308 12.0607C42.5719 10.0669 41.2799 8.56061 38.5608 7.3156C36.9077 6.50811 35.8829 5.96783 35.8829 5.14859C35.8829 4.42332 36.7609 3.64813 38.5961 3.64813C39.8175 3.61858 41.0313 3.84773 42.1578 4.32055L42.5983 4.51728L43.2648 0.738222L43.1503 0.764648ZM55.342 0.344754H51.6716C50.5293 0.344754 49.669 0.658941 49.1698 1.79237L42.1109 17.7836H47.1056L48.1039 15.1615L54.1997 15.1674C54.3436 15.781 54.7841 17.7836 54.7841 17.7836H59.1886L55.342 0.344754ZM24.0935 0.197936H28.8533L25.8759 17.6456H21.122L24.0935 0.192064V0.197936ZM12.0105 9.81442L12.5038 12.2369L17.155 0.344754H22.1967L14.7061 17.7601H9.67614L5.56528 3.01388C5.4987 2.77073 5.34234 2.5619 5.12776 2.42955C3.6461 1.66416 2.07617 1.08332 0.453125 0.700048L0.517724 0.333006H8.17861C9.21808 0.374115 10.0549 0.700049 10.3339 1.80998L12.0076 9.82323L12.0105 9.81442ZM49.4693 11.5938L51.3662 6.71366C51.3427 6.76651 51.7567 5.7065 51.9975 5.05169L52.3234 6.55803L53.4246 11.5909H49.4664L49.4693 11.5938Z" fill="#124084"/>
</svg>
