<svg width="100%" height="100%" style="overflow:visible;" preserveAspectRatio="none" viewBox="0 0 58.74 18" fill="none" xmlns="http://www.w3.org/2000/svg">
<path d="M43.1503 1.34668C41.7853 0.849295 40.3425 0.599705 38.8897 0.609662C34.1916 0.609662 30.8735 2.97634 30.85 6.37368C30.8207 8.86956 33.2079 10.2761 35.0137 11.11C36.8666 11.9674 37.4861 12.5077 37.4803 13.2741C37.4685 14.4398 36.0004 14.9683 34.635 14.9683C32.7586 14.9683 31.7339 14.707 30.1571 14.0522L29.5727 13.7791L28.9062 17.6903C30.0484 18.166 32.1068 18.5741 34.2327 18.6094C39.2274 18.6094 42.4926 16.2574 42.5308 12.6427C42.5719 10.649 41.2799 9.14264 38.5608 7.89764C36.9077 7.09014 35.8829 6.54986 35.8829 5.73062C35.8829 5.00535 36.7609 4.23016 38.5961 4.23016C39.8175 4.20061 41.0313 4.42976 42.1578 4.90258L42.5983 5.09931L43.2648 1.32025L43.1503 1.34668ZM55.342 0.926785H51.6716C50.5293 0.926785 49.669 1.24097 49.1698 2.3744L42.1109 18.3657H47.1056L48.1039 15.7435L54.1997 15.7494C54.3436 16.3631 54.7841 18.3657 54.7841 18.3657H59.1886L55.342 0.926785ZM24.0935 0.779968H28.8533L25.8759 18.2277H21.122L24.0935 0.774095V0.779968ZM12.0105 10.3965L12.5038 12.8189L17.155 0.926785H22.1967L14.7061 18.3422H9.67614L5.56528 3.59591C5.4987 3.35276 5.34234 3.14393 5.12776 3.01158C3.6461 2.24619 2.07617 1.66535 0.453125 1.28208L0.517724 0.915038H8.17861C9.21808 0.956146 10.0549 1.28208 10.3339 2.39201L12.0076 10.4053L12.0105 10.3965ZM49.4693 12.1759L51.3662 7.29569C51.3427 7.34854 51.7567 6.28853 51.9975 5.63372L52.3234 7.14006L53.4246 12.1729H49.4664L49.4693 12.1759Z" fill="#124084"/>
</svg>
