<svg width="100%" height="100%" style="overflow:visible;" preserveAspectRatio="none" viewBox="0 0 74.1 74.77" fill="none" xmlns="http://www.w3.org/2000/svg">
<path d="M38.3986 74.7746C55.8194 74.7746 70.4497 62.8594 74.6016 46.7364H59.5525C55.9488 54.9858 47.7189 60.7586 38.1399 60.7586C34.296 60.7586 30.68 59.8283 27.4829 58.1833L55.111 21.3413C56.9529 23.2881 58.4683 25.5553 59.5586 28.0443H74.6077C72.7844 20.9593 68.9343 14.6814 63.7105 9.87588L71.1088 0H56.571L54.0145 3.41313C49.2651 1.22601 43.9735 0 38.4048 0C17.7623 0 1.02526 16.7391 1.02526 37.3842C1.02526 46.7549 4.48725 55.3062 10.1853 61.8675L0.507812 74.7684H36.5004L38.3986 74.7746ZM14.7746 37.3904C14.7746 24.4833 25.2345 14.0222 38.1399 14.0222C40.6163 14.0222 42.9941 14.4103 45.2302 15.1249L18.7541 50.4329C16.2407 46.7056 14.7746 42.2205 14.7746 37.3904Z" fill="#231F20"/>
</svg>
